<svg xmlns="http://www.w3.org/2000/svg" xmlns:xlink="http://www.w3.org/1999/xlink" width="107" height="20">
<defs>
<path d="m18.5,16 0,-1.5 7,0 0,1.5 -2.875,3.5 -1.25,0zm-9,-5.25 0,-1.5 2,-1.75 3,0 2,1.75 0,1.5 -2,1.75 -3,0zM0.5,4l0,1.5 7,0 0,-1.5 -2.875,-3.5 -1.25,0z" id="a"/>
<path d="m18.5,10.75 0,-1.5 2,-1.75 3,0 2,1.75 0,1.5 -2,1.75 -3,0zm0,-6.75 0,1.5 7,0 0,-1.5 -2.875,-3.5 -1.25,0zm-9,12 0,-1.5 7,0 0,1.5 -2.875,3.5 -1.25,0zm0,-12 0,1.5 7,0 0,-1.5 -2.875,-3.5 -1.25,0zm-9,12 0,-1.5 7,0 0,1.5 -2.875,3.5 -1.25,0zm0,-5.25 0,-1.5 2,-1.75 3,0 2,1.75 0,1.5 -2,1.75 -3,0z" id="b" style="fill:none"/>
</defs>
<use style="fill:#000;stroke:#000" x="0" y="0" xlink:href="#a"/>
<use style="stroke:#000" x="0" y="0" xlink:href="#b"/>
<use style="fill:#9c9c9c;stroke:#9c9c9c" x="27" y="0" xlink:href="#a"/>
<use style="stroke:#9c9c9c" x="27" y="0" xlink:href="#b"/>
<use style="fill:#3b80b3;stroke:#3b80b3" x="54" y="0" xlink:href="#a"/>
<use style="stroke:#3b80b3" x="54" y="0" xlink:href="#b"/>
<use style="fill:#2694e8;stroke:#2694e8" x="81" y="0" xlink:href="#a"/>
<use style="stroke:#2694e8" x="81" y="0" xlink:href="#b"/>
</svg>