<svg xmlns="http://www.w3.org/2000/svg" xmlns:xlink="http://www.w3.org/1999/xlink" width="107" height="20">
<defs>
<path d="M3.1,0 0,3.8 0,6 8,6 8,3.8 4.9,0zm8.2,7 -2.3,2 0,2 2.3,2 3.4,0 2.3,-2 0,-2 -2.3,-2zm6.7,7 0,2.2 3.1,3.8 1.8,0 3.1,-3.8 0,-2.2z" id="a"/>
<path d="m18.5,10.75 0,-1.5 2,-1.75 3,0 2,1.75 0,1.5 -2,1.75 -3,0zm0,-6.75 0,1.5 7,0 0,-1.5 -2.875,-3.5 -1.25,0zm-9,12 0,-1.5 7,0 0,1.5 -2.875,3.5 -1.25,0zm0,-12 0,1.5 7,0 0,-1.5 -2.875,-3.5 -1.25,0zm-9,12 0,-1.5 7,0 0,1.5 -2.875,3.5 -1.25,0zm0,-5.25 0,-1.5 2,-1.75 3,0 2,1.75 0,1.5 -2,1.75 -3,0z" id="b" fill="none"/>
</defs>
<use fill="#000" x="0" y="0" xlink:href="#a"/>
<use stroke="#000" x="0" y="0" xlink:href="#b"/>
<use fill="#9c9c9c" x="27" y="0" xlink:href="#a"/>
<use stroke="#9c9c9c" x="27" y="0" xlink:href="#b"/>
<use fill="#3b80b3" x="54" y="0" xlink:href="#a"/>
<use stroke="#3b80b3" x="54" y="0" xlink:href="#b"/>
<use fill="#2694e8" x="81" y="0" xlink:href="#a"/>
<use stroke="#2694e8" x="81" y="0" xlink:href="#b"/>
</svg>