<svg xmlns="http://www.w3.org/2000/svg" xml:space="preserve" viewBox="0 0 682.3 534.3"><path d="M327.7 261.1c2.2-4.4 4.2-8.8 6.1-13.3 1.9-4.6 3.7-9.4 4.8-14.3.3-1.5-.8-3.3-2.2-3.8-1.5-.6-2.7.1-3.4 1.5-2 4.3-3.5 8.9-5.3 13.4a756 756 0 0 1-5.5 13.4c-.7 1.6.2 3.7 1.7 4.5 1.6 1 3.1.1 3.8-1.4"/><path d="M332.7 232.9c1.9 8.9 4.3 17.7 7.2 26.3.6 1.7 2.5 3.1 4.3 2.4 1.9-.7 2.2-3 1.7-4.6-2.8-8.3-5.2-16.7-7.5-25.2-.4-1.4-2.1-2.6-3.5-2.3-1.5.3-2.5 1.9-2.2 3.4M363.4 260.8c12.6-25.1 23.4-51 35.1-76.5 3.2-6.9 6.4-13.8 9.8-20.7.9-1.8-.3-4.3-1.9-5.2-1.8-1-3.6-.1-4.4 1.6-12.3 25.2-23.3 51.1-34.9 76.7-3.1 6.9-6.3 13.9-9.6 20.8-.8 1.7.3 4 1.8 4.9 1.7.9 3.3 0 4.1-1.6M314.9 203.4c-1.3-3.5-2.6-6.9-3.9-10.4-1.8.9-4 1-6 1.3 1.9 4.8 3.8 9.7 5.6 14.5 2.2.1 4.4.1 6.5.6-.6-2-1.4-4-2.2-6M321 208.9c.5 1.5 2.2 2.7 3.8 2.1 1.7-.7 1.9-2.6 1.5-4.1-1.4-5.1-3-10.1-4.7-15.1-1.9.8-3.9 1.4-5.9 2.2 1.8 4.9 3.6 9.9 5.3 14.9M337.5 166.4c-.1-.3-.3-.7-.5-.9-.8-1.1-2.2-2-3.6-1.4-1 .4-1.7 1.4-1.8 2.5s.3 2.1.5 3.1l.9 3.3c.7 2.4 1.3 4.9 2.5 7.2.2.5.9 1.7.2.3 0 .1.1.2.1.3.1.2.5 1.2.6 1.1v.1q-.45-1.05-.3-.6v.1c.2.5.5 1 .9 1.4 1.4 1.1 3.2.9 3.9-.8.3-.7.2-1.6-.1-2.3-.4-1.2-1.7-2.2-3.1-2s-2 1.7-1.9 2.9c0 .3-.1.3 0-.7.2-.4.3-.9.5-1.3 1.4.1 2.7.2 4.1.4-.6-.7.5 1 .4.7.4 1 .2 1 .2.7-.1-.3-.1-.6-.2-.9-.1-.4.2 1 .1.5v-.7.2-.6c-.1-1.3-.5-2.7-.9-4-.7-2.4-1.4-4.8-2.1-7.1-.1-.4-.3-.8-.4-1.2q.15 0 0-.3c.2.5.2 1.1.2 1.7-.6.8-1.2 1.7-1.8 2.5-1.2-.5-2.4-.9-3.6-1.4.1.1-.5-1.1-.4-.8.6 1.5 2.3 3 4 2.2 1.8-.7 2.1-2.6 1.6-4.2"/><path d="M341.2 180.4c2.2-4.2 4.3-8.4 6.4-12.6-.9.7-1.7 1.3-2.6 2h19.1c-1.2-1.9-2.4-3.7-3.6-5.6-3.1 6.4-6.1 12.9-9.1 19.3-1.9 4-3.7 7.9-5.6 11.9-.5 1-1 2-1.4 3-.5 1.2-.5 2.6-.3 3.9.5 3.2 1.5 6.3 2.3 9.4.7 2.6 1.4 5.3 2.4 7.9 1.1 2.7 4.6 3.5 5.9.6.2-.6.5-1.1.8-1.7s.6-1.2.9-1.9c.1-.3-.4.8 0 0l.3-.6c.2-.4.5-.9.7-1.4 2.6-5 5-10.1 7.5-15.2 5.1-10.4 10.4-20.9 15.3-31.4.7-1.5 1.5-3.1 2.1-4.6.1-.2.2-.4.2-.6l.2-.8c-.3 1.2.1-.4.1-.5.1-.9-.1-1.7-.5-2.5-.9-1.7-3.3-3.1-5-1.6-1.5 1.4-1.6 3.6-.5 5.3 1 1.4 3.2 2.5 4.7 1.1.2-.2 0-.1-.8.4-.6 0-1.2.1-1.7.1-.5-.3-1.1-.6-1.6-.9-.4-.6-.7-1.1-1.1-1.7-.4-1.5-.4-2.3.3-3.6-.2.3-.3.6-.5.9-.1.1-.1.3-.2.4-.2.4-.4.9-.6 1.3-.7 1.4-1.3 2.9-2 4.3l-6.6 13.8c-4.9 10.3-9.8 20.6-14.8 30.9-.5 1-.9 1.9-1.4 2.9-.1.2-.6 1.1 0 0l-.6 1.2c-.2.3-.3.7-.5 1-.1.3-.3.5-.4.8-.4.8.4-.8 0-.1-.1.2-.2.3-.3.5 1.8.4 3.7.9 5.5 1.3-.7-2.2-1.3-4.5-1.9-6.7-.2-.7-.4-1.3-.5-2 0-.1-.3-1.3-.2-.8s0 0 0-.1c-.1-.2-.1-.5-.2-.7l-.9-3.9c-.1-.4-.2-.9-.3-1.4 0-.3 0-.9-.1-1.1v.7c0-.2.1-.3-.1.3l-.1.4c0-.1 0-.1.1-.2.5-.8.9-1.8 1.2-2.6 3.9-8.1 7.7-16.2 11.5-24.4 1.2-2.5 2.3-4.9 3.5-7.4 1.1-2.4-1.1-5.6-3.6-5.6-6.4.1-12.7.2-19 .3-1.3 0-2.1.9-2.6 2-2 4.3-4 8.5-6 12.8-.7 1.6.2 3.8 1.7 4.7 2.2 1.2 3.7.3 4.5-1.2M307.4 308.2c-2.2 2-4.7 3.8-7.2 5.5 12.3 1.5 21.9 12.1 21.9 25 0 13.9-11.1 25.2-24.8 25.2-4.2 0-8.1-1.1-11.6-2.9-1.9 1.6-3.5 3.7-5.7 4.7 5 3.3 10.9 5.2 17.3 5.2 17.5 0 31.8-14.4 31.8-32.2 0-14.2-9.1-26.2-21.7-30.5M375.8 329.7c-2.5-4-7.4-6.2-12-4.9-4.5 1.3-7.4 5.7-7.4 10.3 0 4.9 3 9 6.3 12.4 1.6 1.7 3.4 3.2 5.2 4.8 1 .9 2 1.8 2.9 2.7 1.1 1 2.1 2.2 3.4 2.8 1.4.7 3 .5 3.9-.8 1-1.3.7-3.2-.1-4.5-1.2-1.8-3.2-3.3-4.8-4.7-1.5-1.4-3.1-2.8-4.6-4.2-.6-.5-1.2-1.1-1.7-1.6-.3-.3-.6-.6-.8-.9 0 0-.8-.9-.4-.5-.5-.6-1-1.2-1.4-1.9-.1-.1-.6-1-.3-.4-.2-.4-.4-.8-.5-1.2-.1-.2-.1-.4-.2-.5.1.4.1.4.1.1 0-.1-.1-1.1-.1-.8 0 .6.1-1 0-.5 0 .2.2-.7.3-.9.2-.6-.2.1.2-.4.1-.1.6-.9.3-.4.2-.3.5-.5.8-.7 0 0 .9-.6.4-.3.3-.2.6-.3 1-.4.7-.3-.3-.1.5-.1.4 0 .7-.1 1.1 0-.5 0 .4.1.5.1 0 0 1 .4.5.1.3.1.6.3.9.5-.5-.3.4.4.5.5.2.2.2.2 0-.1.1.2.3.4.4.6 1 1.5 3.2 2.3 4.7 1.1 1.5-1.3 1.4-3.7.4-5.3"/><path d="M377.7 333.6c.6-.7 1.8-1.8 2.6-2.2.7-.3.9-.4 1.5-.3q.45 0 0 0c.1 0 .2 0 .3.1-.4-.4.1.1.3.2-.6-.3.1.1.2.2.5.4-.1-.2.1.1.1.2.3.5.4.7-.5-.8 0 .1.1.3.3.6.1-.3 0 .1 0 .1.1 1.1.1.7v.6s-.2 1-.1.7c-.7 2.9-2.8 5.5-4.5 8-2 3-4.2 6-6 9.1-1 1.8-.8 4 .8 5.4 1.4 1.3 3.5 1.3 4.7-.3 2.8-3.6 5.2-7.7 7.7-11.5 2.4-3.7 4.6-7.7 4.2-12.2-.3-4-3-8.2-6.9-9.4-4.4-1.4-8.1 1.6-10.8 4.7-1.3 1.5-.6 4.1.7 5.3 1.5 1.3 3.4 1.1 4.6-.3M287.2 326q0-.15 0 0l-.2-.2c-.3-.4.5.5.2.2M309.8 348.5c-5.2-4.8-10.2-9.6-15.2-14.6.5 3 0 6.1-.9 9.1 3.2 3.2 6.5 6.3 9.8 9.4.7.7 1.4 1.4 2.2 2 1.4 1.3 3.7 1.4 4.9-.3s.7-4.3-.8-5.6M304.7 326.7c-.1.1-.1.2-.1.2.1-.1.1-.2.1-.2M305.1 326.4c-.1.1-.2.2-.3.4l-.1.1c.1-.1.4-.5.4-.5M304.6 326.9c-.3.5-.5.9-.6 1.6.3-.5.4-1.1.6-1.6"/><path d="M304.7 326.9s0-.1 0 0q0-.15 0 0-.15 0 0 0M304.7 326.9l.1-.1c-.1 0-.1 0-.1.1 0-.1 0 0 0 0"/><path d="M310.4 327.1c-1-1.4-3.5-2.8-5-1.2-.3.3-.5.5-.6.8.1-.1.2-.2.3-.4 0 0-.3.4-.4.5v.1c-.2.5-.4 1-.6 1.6.1-.6.3-1.1.6-1.6l-.1.1c-.6.6-1.2 1.3-1.8 1.9-1.8 1.9-3.7 3.9-5.5 5.8-.7.7-1.4 1.4-2 2.1-.7 3.9-.5 8-.8 11.9 4.1-4.2 8.2-8.4 12.3-12.7.7-.7 1.4-1.5 2.1-2.2.2-.2.4-.5.7-.7-.4.2-.9.3-1.4.4.6-.2 1.2-.4 1.7-.6-.1.1-.3.2-.4.3.2-.1.3-.2.4-.3 1.4-1.7 1.8-4 .5-5.8"/><path d="M308.1 333.4c.4 0 .9-.1 1.4-.4.1-.1.2-.2.4-.3-.6.3-1.2.5-1.8.7M372.4 371.8q-3.15 0-6.3-.6c-8.3-1.7-15.5-6.6-20.2-13.7s-6.3-15.7-4.6-24.1 6.5-15.7 13.6-20.4c7.1-4.8 15.6-6.5 23.9-4.8s15.5 6.6 20.2 13.7 6.3 15.7 4.6 24.1-6.5 15.7-13.6 20.4c-5.3 3.6-11.4 5.4-17.6 5.4m.1-57.3c-4.8 0-9.6 1.4-13.7 4.2-5.5 3.7-9.3 9.4-10.7 16-1.3 6.6-.1 13.3 3.6 18.9 3.6 5.6 9.2 9.4 15.7 10.7s13.1 0 18.6-3.7 9.3-9.4 10.7-16c1.3-6.6.1-13.3-3.6-18.9-3.6-5.6-9.2-9.4-15.7-10.7-1.6-.3-3.2-.5-4.9-.5M301.6 263.8c6.7.1 13.4.1 20 0h2.1c.2 0 .4 0 .6-.1h.2c1.9-.4.5 0 .1 0 1.9 0 3.1-2.1 2.8-3.9-.3-1.9-1.7-3.6-3.8-3.6h.2c-.8-.1-1.6-.1-2.5-.1h-5.5c-4.1 0-8.2.1-12.2.2-1 0-1.9.1-2.9.1-1.9.1-3 2.1-2.7 3.8.3 2 1.6 3.6 3.6 3.6M343 263.5c.8.3 1.7.3 2.5.4 1.4.1 2.8.1 4.1.1 3.1 0 6.2 0 9.3-.4 2-.2 3.8-.6 4.7-2.6.8-1.8-.2-4.5-2-5.3-1.9-.9-3.7-.2-4.5 1.7.2-.5.7-1.2.9-1.4-.1 0 1-.4.6-.4-.1 0-.3.1-.4.1-.5.2.7-.1.5-.1-.1 0-.2 0-.3.1-.3 0-.5.1-.8.1-1.4.2-2.8.2-4.2.3-2.9.1-5.9 0-8.8.3-.9.1-1.8.2-2.6.5-1.3.5-2 2.1-1.8 3.4.4 1.5 1.4 2.7 2.8 3.2M335.2 178.2v-.5c.2-.5.3-.9.5-1.4-.5.7-.6 1.5-.5 2.3.1-.5.1-1.1.2-1.6v.1c.6-1.6 0 .1-.1.5-.2.9 0 1.6.2 2.4.1.4.2.8.3 1.1.3 1 .6 2.1 1 3.1 1 3 2 5.9 3 8.9 2.1 6.2 4.2 12.4 6.4 18.5l1.5 4.2c.6 1.7 2.6 3.1 4.4 2.5 1.9-.7 2.3-3 1.7-4.7-3.5-10.2-7-20.4-10.6-30.6-.5-1.2-.9-2.5-1.4-3.7l-.6-1.2c-.3-.5-.5-1.1-.9-1.5-.5-.6-1-.9-1.7-1.1 1.1.4.8.3.5.2.4.4.8.7 1.2 1.1-.5-.6-1.1-1.2-1.9-1.4.4.2.9.5 1.3.7-.3-.2-.5-.4-.8-.6-2.2-.9-3.8.6-3.7 2.7M323 168.5c1.7.2 3.4.4 5.2.6.9.1 1.7.2 2.6.3.4.1.9.1 1.3.2.9.1 1.8.4 2.6-.1.5-.2 1-.6 1.3-1 .3-.5.5-1.1.6-1.6.1-1.2-.3-2.8-1.3-3.5-.6-.5-1.1-.8-1.8-1-.4-.1-.9-.1-1.3-.1s-.9-.1-1.3-.1c-.9-.1-1.7-.1-2.6-.2-1.7-.1-3.5-.3-5.2-.5.3 0 .5.1.8.1h-.1c-.9-.1-1.6-.1-2.4.5-.6.5-1.1 1.4-1.1 2.2-.1.9.1 2 .7 2.8.4.5 1.2 1.3 2 1.4M380.5 163.2c7.4.2 14.8.5 22.2.7 1.1 0 2.1.1 3.2.1 2 .1 3.3-2.3 3-4.1-.3-2.1-1.8-3.8-4-3.8-7.4-.2-14.8-.3-22.2-.5-1.1 0-2.1 0-3.2-.1-2 0-3.2 2.3-2.9 4 .4 1.9 1.8 3.6 3.9 3.7M429.1 94.9l-9.4-9.8-24-3.6-25.4.4-54.5-.4-32.3-1.1-24 4.9-7.6 13.1-.6 32.2 179 2.7zm-72 1.4h-4.4L335 96c-3.7-.1-7.4 0-11.1-.3-1.3-.1-2.3-1-2.5-2.4-.1-1.2.6-2.5 1.8-2.5q2.1-.15 4.2 0c5.9 0 11.8.2 17.7.2 2.6 0 5.2.1 7.7.1h2.4c.4 0 .8 0 1.2.1h-.2.2c2.6.4 3.2 4.8.7 5.1M250.8 381.1l178.7-.5-1.7 29.4-11.4 13.1-157.5 1.6-11.4-10.6"/><path d="m414.8 125.9-2.5 4.1-3.3 281.9 22.9-4-1.6-284.5M260.6 127.8v25.6l-12-2.2 1.6-27.2zM264.4 373l.5 26.7L248 398v-21.2z"/><path d="M325.3 292.2c25 .8 50.1.9 75.1.4 3.5-.1 7-.1 10.4-.2 1.8 0 3.6-.1 5.5-.1 1.8 0 3.7 0 5.5-.3s2.9-1.6 2.8-3.4c0-1.6-1.1-3.8-2.9-4-3.2-.4-6.6-.1-9.8 0-3.1.1-6.3.2-9.4.2l-18.9.3c-12.6.1-25.2.2-37.8 0-7.1-.1-14.2-.1-21.4-.2-1.9 0-2.9 2.1-2.7 3.8.2 1.9 1.7 3.4 3.6 3.5"/><path d="M272.8 429.7c-21.1 0-29.3-15.4-29.5-25.2v-.2l.4-27.6 7 .1-.4 27.5c.2 7.3 6.7 18.6 23.3 18.3l131.1-.4c12.2 0 22.1-9.9 22.1-22.1v-295c0-11.1-9-20.1-20.1-20.1l-134.8-.3c-4.8-.1-9.8 2.2-13.7 6.1-4.1 4.2-6.4 9.6-6.2 14.8l.4 47.8-7 .1-.4-47.8c-.2-7.1 2.8-14.4 8.2-19.9 5.2-5.3 12-8.3 18.7-8.2l134.8.3c15 0 27.1 12.2 27.1 27.1v295c0 16.1-13.1 29.1-29.1 29.1l-131 .4c-.3.2-.6.2-.9.2"/><path d="M209.8 153c.8.1 1.5.1 2.3.2.9.1 1.8.2 2.6.2.5.1 1 .1 1.5.1.3 0 .9.1.2 0 .6.1 1.2.1 1.8.1 6.2.4 12.4.9 18.7 1.3 15.6 1 31.3 1.7 46.9 2.9 9.8.7 19.6 1.6 28.9 5.1 1.8.7 3.8 1.6 5.5 2.7.4.3.9.5 1.3.8.2.1.4.3.6.4-.1-.1-.5-.4.1.1.8.6 1.6 1.3 2.3 2 .4.4.7.7 1 1.1-.5-.5.4.4.5.6.3.4.6.8.8 1.2.1.2.2.4.4.6.6 1-.3-.7.1.3.2.4.3.8.5 1.1.1.2.1.4.2.7.2.6-.1-.6 0 0 .1.5.2.9.2 1.4v1c0 .5-.1.9-.2 1.4.1-.8-.1.3-.2.6-.1.4-.3.8-.4 1.1-.1.1-.3.6 0 0-.1.2-.2.4-.4.6-.4.7-.9 1.3-1.4 1.9-.4.4.4-.4 0 0l-.4.4c-.3.3-.7.6-1 .9-.7.5-1.4 1-2.1 1.4-.1.1-.6.4 0 0l-.6.3c-.4.2-.9.4-1.3.6-1.7.8-3.4 1.4-5.2 1.9-1.7.5-3.5.9-5.2 1.3-.7.1-.2 0 0 0-.2 0-.4.1-.6.1l-1.8.3c-1.4.2-2.8.5-4.1.8-5.3 1-10.7 2-16 2.9-21.3 3.9-42.7 7.4-64.2 9.9-2.6.3-5.2.6-7.9.8-2 .2-3.3 2.2-3 4.2.3 1.9 1.9 4.1 4 3.9 22.3-2.2 44.4-5.7 66.4-9.7l16.5-3c5-.9 10.1-1.7 15.1-2.9 7.2-1.7 15.4-4.8 19-11.7 2.2-4.2 2.5-9.1.9-13.6-1.6-4.4-4.8-8-8.5-10.8-8.2-6.1-18.7-8.4-28.7-9.5-17.4-2.1-34.9-2.4-52.4-3.4-11.1-.6-22.1-1.1-33.2-1.6h-.6c-1.8-.1-2.8 2.1-2.6 3.6.4 2 1.8 3.3 3.7 3.4"/><path d="M219.4 273.6c20.4-2.6 40.7-5.5 61-8.2 15.1-2.1 31-4.2 43.9-12.9 6.4-4.2 11.9-10.4 14.4-17.7 1.5-4.4 1.9-9.2.6-13.7-1.2-4.4-4.3-7.9-8.1-10.5-3.5-2.3-7.6-3.8-11.6-5q-6-1.8-12.3-2.7c-8.8-1.3-17.8-1.4-26.7-1.1-17.7.6-35.3 3.1-53.1 2.9-2.1 0-4.2-.1-6.3 0-4 .2-3.5 6.8.1 7.4 4.2.7 8.5.7 12.8.6 4.2-.1 8.5-.3 12.7-.5 8.6-.6 17.2-1.4 25.8-1.9 16.5-1.1 33.2-1.4 48.9 4.1 3.2 1.1 6.6 2.6 8.9 5l.4.4.1.1c.3.4.5.7.8 1.1.1.2.2.3.3.5-.4-.6 0-.1 0 .1.2.5.4.9.5 1.4.3.8.1.2 0 0 .1.2.1.5.1.7.1.4.1.9.2 1.3v.7c0 .5 0 1-.1 1.6-.2 1.9-.5 3.1-1.3 5.1-.7 1.7-1.3 2.8-2.5 4.5-.5.7-1 1.3-1.5 1.9-.2.3-.5.6-.8.9-.1.2-.3.3-.5.5l-.2.2c-1.2 1.2-2.5 2.4-3.8 3.4s-2.7 2-4.1 2.8c-.3.2-.7.4-1 .6-.6.4-.2.1-.1.1l-.6.3c-.8.4-1.5.8-2.3 1.2-3.2 1.5-6.6 2.7-10 3.8-1.7.5-3.4 1-5.1 1.4l-2.7.6-1.2.3c-.2.1-.5.1-.7.1.4-.1 0 0-.2 0-3.6.7-7.1 1.3-10.7 1.8-19.3 2.8-38.6 5.4-57.9 8.3-2.5.4-4.9.7-7.4 1.1-1.9.3-2.9 1.9-2.7 3.8.6 1.8 2.1 3.9 4 3.6"/><path d="M242.6 270.3c7.1-.5 14.2-1 21.4-1.6 6.6-.5 13.3-1.1 19.9-1.1 6.3 0 12.8.6 18.8 2.7.6.2 1.1.4 1.7.6-.5-.2.2.1.3.1.3.1.6.2.8.4 1.2.6 2.4 1.2 3.5 1.9.5.3 1 .7 1.5 1 1 .6-.5-.5.4.3.2.1.4.3.6.4 1 .8 2 1.7 2.9 2.6.1.1.8 1 .2.3.2.2.4.5.5.7.4.5.7.9 1 1.4.1.2.3.5.4.7.1.1.6 1.2.1.2.3.6.6 1.2.8 1.9.1.2.1.4.2.6 0 .2.3 1.2.1.2.1.6.2 1.1.3 1.7 0 .2 0 .5.1.7.1 1.1.1-.8 0 .4 0 .8-.1 1.5-.2 2.3 0 .2-.1.5-.1.8.2-.7-.2.5-.2.5l-.6 1.8c-.6 1.3-.9 1.9-1.8 3.3-1.6 2.4-3.1 4-5.2 5.8-4.6 4-9.5 7-15.2 9.2-5.9 2.3-12 3.2-18.3 3.9-7.8.9-15.7 1.7-23.5 2.6-3.9.4-7.9.9-11.8 1.3-2 .2-3.9.4-5.9.6-1.5.2-3.5.5-4.8.3-1.9-.3-3.5.9-3.8 2.9-.2 2.1 1.1 3.9 3 4.6 3.4 1.3 7.5.2 11.1-.2l10.8-1.2c7.5-.8 14.9-1.6 22.4-2.4 7.1-.8 14.3-1.5 21.1-3.8 6.2-2.1 12.2-5.3 17.4-9.4 4.9-3.9 9.4-8.8 11.5-14.8 2.2-6.2 1.4-12.7-1.8-18.4-6.4-11-19.8-15.2-31.7-16.3-7.9-.7-15.8-.2-23.6.5-8.4.8-16.8 1.5-25.1 2.4-4.3.8-3.2 7.8.8 7.6"/><path d="M274.5 322.1c3 1 5.8 2.1 8.6 3.9 1.4.9 2.2 1.5 3.5 2.6s2.1 2.1 2.9 3.1c.5.7.9 1.3 1.3 2 0 0 .6 1.2.3.5.2.4.3.7.5 1.1.3.6.5 1.2.7 1.9 0 0 .3 1.3.2.5.1.5.2 1 .3 1.6.1.4.1.8.1 1.2v.6c0 .7-.1 1.3-.1 2-.2 1.5-.8 3.1-1.6 4.7-2.6 5.3-7.1 9.6-12.1 13.1-5.2 3.6-11.2 6.2-17.6 8.1-7.9 2.4-16.1 3.7-24.2 4.9-2 .3-3.4 2.1-3 4.2.3 1.8 1.9 4.2 4 3.9 15.5-2.4 31.4-5 44.6-14 6.1-4.1 11.4-9.6 14.6-16.2 3.6-7.4 2.7-15.8-1.5-22.6-4.5-7.5-12.5-11.9-20.7-14.4-1.9-.6-3.5 1.1-3.7 2.8-.3 2 1 3.9 2.9 4.5M276.4 430c18.9 10.7 37.9 21.2 56.9 31.8 2.6 1.5 5.2 2.9 7.9 4.4s5.4 3.2 8.4 4.3c1.4.5 3-.6 3.4-1.9.5-1.4.1-3.5-1.1-4.5-2.2-1.8-4.7-3.1-7.1-4.5-2.4-1.3-4.7-2.6-7-3.9-4.8-2.6-9.5-5.3-14.2-7.9l-28.8-15.9c-5.2-2.9-10.5-5.8-15.7-8.8-1.7-1-3.8-.2-4.5 1.7-.9 1.9 0 4.2 1.8 5.2"/><path d="M347.1 469.4c2.5 8 4.9 16 7.1 24.1 2.1 7.9 3.9 15.1 5.6 23.3.5 2.4 1 4.7 1.5 7.1.2 1.2.5 2.3.7 3.5.2 1.3.6 2.8.7 3.8.2 2.1 2.2 4.1 4.4 3.7 2.4-.5 2.8-3 2.2-5 0 .2.1.2 0-.2 0-.3-.1-.6-.1-1-.1-.5-.2-.9-.3-1.4l-.6-3.3c-.4-2.1-.9-4.3-1.3-6.4l-2.7-12c-2-8.2-4.2-16.4-6.6-24.5-1.4-4.7-2.8-9.3-4.3-14-.6-1.8-2.6-3.2-4.5-2.5-2 .7-2.4 3-1.8 4.8M433.2 171c6.3-12.5 16.7-23.4 26-33.9 4.1-4.6 8.3-9.1 13.4-12.8 1-.7 2-1.4 3-2 .2-.2.5-.3.7-.4l.2-.1c.5-.3 1.1-.6 1.7-.8 1.8-.8 3.7-1.5 5.6-1.9-1.1.3.3 0 .6-.1.4-.1.8-.1 1.2-.1.9-.1 1.7-.1 2.6 0 .7 0 .1-.2-.1 0 .1-.1.5.1.6.1.4.1.7.1 1.1.2s.7.2 1.1.3c.2.1 1 .5 1.2.4-.4.1-.8-.3-.2-.1.2.1.3.2.5.2.3.2.6.3 1 .5l.9.6c.1.1.3.2.5.3.8.5-.5-.4 0 0 .6.5 1.1.9 1.7 1.4l.8.8.4.4c.4.4.4.8 0-.1.3.6 1 1.3 1.4 1.8.5.7.9 1.4 1.4 2.2.2.3.3.8.6 1.1-.7-.9-.3-.6-.1-.2l.3.6c.4.8.7 1.6 1 2.5.3.8.6 1.6.8 2.4.1.4.2.8.4 1.2.1.2.1.4.2.6.3 1.1-.2-.7 0 0 .4 1.8.7 3.5.9 5.3l.3 3c0 .5 0 1 .1 1.5 0 .7.2.3 0-.2.1.2 0 .6 0 .8 0 1.9-.2 3.8-.5 5.7-.1.5-.1.9-.2 1.4 0 .2-.1.4-.1.6-.2 1 .2-.6 0 0-.2.9-.5 1.7-.7 2.6-.5 1.6-1.2 3.1-1.9 4.6-1.5 3.4 3.2 7.7 5.9 4.3 2.3-2.9 3.2-6.9 3.9-10.4.7-3.8.8-7.8.6-11.6-.5-7.7-2.8-15.8-7.2-22.2-4.4-6.3-11.1-10.8-19-10.4-10.6.5-19.7 8.2-26.6 15.5-5.3 5.6-10.3 11.5-15.3 17.3-4.9 5.8-9.7 11.9-13.6 18.5-1 1.7-1.9 3.4-2.8 5.2s.3 4.3 1.9 5.2c1.2.8 2.9-.1 3.8-1.8"/><path d="M501.2 160.2c-14.4 24.8-24 52.3-28.1 80.7-.6 4-1 8-1.4 12-.4 4.2-.8 8.4-.6 12.7.1 1.8 1.7 3.6 3.5 3.8 1.9.1 3.2-1.2 3.5-3.1.4-3.5.4-7.1.7-10.7.3-3.4.7-6.8 1.1-10.2.5-3.4 1-6.8 1.6-10.2.6-3.1 1.3-6.8 1.9-9.5 3.1-13.5 7.5-26.7 13-39.4 3.1-7.2 6.6-14 10.5-20.7 1-1.8.8-4.1-.8-5.6-1.3-1.3-3.8-1.6-4.9.2"/><path d="M472.1 267.9c5.2 21 9.8 42.2 14.5 63.4 5 22.2 10.1 44.3 16 66.2 3.3 12.1 6.8 24.2 10.8 36.1.6 1.9 2.8 3.4 4.7 2.6 2-.8 2.5-3.2 1.8-5.1-3.5-10.5-6.7-21.2-9.7-31.9-1.5-5.5-3-11-4.4-16.5-1.4-5.6-2.6-10.4-3.9-15.8-5.2-21.6-9.9-43.3-14.8-64.9-2.7-11.9-5.5-23.7-8.5-35.5-.4-1.6-2.4-3-4-2.6-1.7.4-2.9 2.3-2.5 4"/><path d="M513.5 433.5c2.8 9.5 6 18.9 8.7 28.4 2.1 7.3 4.1 14.5 6 21.9.1.5.2.9.3 1.4.1.2.4 1.5.2.7.2.9.5 1.9.7 2.8.5 2 1 4 1.4 6q1.35 5.85 2.4 11.7c1.5 8.1 2.4 16.3 3.4 24.5.2 1.8 1.6 3.5 3.4 3.7 1.7.1 3.3-1.2 3.4-3 0-7.5-1.3-15.1-2.6-22.5-1.5-8.1-3.3-16.2-5.3-24.2-3.4-13.8-7.4-27.4-11.7-41-1.3-4.3-2.7-8.5-4-12.8-.5-1.8-2.7-3.2-4.6-2.5-2 .8-2.3 3.2-1.7 4.9M280.8 85.9c7.7 11.7 15.1 24 25 34.1 1.4 1.4 3.8 1.4 5-.3 1.3-1.8.7-4.3-.8-5.7-4.6-4.6-8.3-9.4-12.1-14.9-4-5.7-7.9-11.5-11.8-17.3-1-1.5-3.2-2.4-4.8-1.1-1.6 1.1-1.5 3.6-.5 5.2M376.3 118.9q6.3-8.1 12-16.5c1.9-2.7 3.7-5.5 5.5-8.3.9-1.5 1.9-2.9 2.8-4.4.9-1.4 1.7-3.1 2.8-4.4 1.5-1.8.5-4.8-1.2-6.1-1.9-1.4-4.2-.7-5.1 1.4-.6 1.4-1.7 2.8-2.5 4-.8 1.3-1.7 2.7-2.5 4-1.8 2.9-3.7 5.7-5.6 8.5-3.8 5.6-7.7 11-11.8 16.4-2.6 3.6 2.6 9.3 5.6 5.4"/><path d="m249.1 120.2 25.7.3c10.8.1 21.5.2 32.2.4 1.8 0 3.6-.1 5.4-.1 6.5-.2 13-.1 19.5.1 13.1.3 26.2 1 39.4.6 9.2-.3 18.4-.1 27.5-.1 10.2 0 20.5.2 30.7 0h.6c2 0 3.2-2.3 2.9-4.1-.3-2-1.8-3.8-3.9-3.8h-.1c1.8.4.1 0-.5 0h-25.8c-9.9 0-19.7-.1-29.6 0-4.4 0-8.7.2-13.1.2-6.5 0-12.9-.2-19.4-.4-6.6-.2-13.2-.4-19.9-.4-4.5 0-9 .2-13.5.2-9.5 0-19-.2-28.5-.3-10-.1-20-.2-30-.2h-.5c-2 0-3.1 2.2-2.9 4s1.7 3.5 3.8 3.6M498.9 125.4c-13.3 11.9-22.1 27.9-28.4 44.4-2.6 6.8-4.7 13.8-6.5 20.9-.5 2 .1 4.3 2 5.4 1.6.9 4.1.3 4.6-1.7 2.9-11.6 6.8-22.9 12-33.7.2-.5.5-1 .8-1.6.1-.3.3-.6.5-.9-.3.6 0-.1.1-.2l1.8-3.3c1.1-1.9 2.2-3.8 3.4-5.7 2.1-3.3 4.5-6.6 7-9.6.6-.8 1.2-1.5 1.9-2.2.3-.4.6-.7.9-1.1.2-.2 1.2-1.3.5-.5 1.2-1.3 2.5-2.6 3.8-3.8 1.5-1.4 1.6-3.7.5-5.3-1.1-1.4-3.4-2.4-4.9-1.1"/><path d="M469 197.1c3.1.4 6.2 1 9.2 1.7 3.2.8 6.5 1.9 9.9 2.1 1.9.1 3-2 3-3.6 0-1.9-1.2-3.6-3.1-4.2-1.6-.5-3.5-.7-5.1-1.1-1.3-.3-2.7-.6-4-1-3.3-.8-6.5-1.2-9.9-1.5-.8-.1-1.8.6-2.2 1.3s-.6 1.4-.6 2.2c-.1 1.6 1 3.8 2.8 4.1M207.3 146.4c-1.8 1.2-3.6 2.4-5.5 3.5-.5.3-.9.5-1.4.8-.2.1-.4.2-.6.4-.7.4.2-.1-.2.1-.9.5-1.9 1-2.8 1.5-3.8 2.1-7.7 4.1-11.5 6.3-7.2 4.2-13.5 9.5-17.2 17.1-4.9 10-4 22.1-1.9 32.7.8 4.2 1.9 8.4 3.1 12.5 1 3.3 1.8 6.6 4.2 9.2 3.6 3.7 9.1 3.5 13.7 2.2 5.5-1.5 10.6-4.6 15.2-7.9 4.5-3.2 8.8-7 12.3-11.3.8-1 1.4-2.1 1.9-3.3 1.5-3.4-3.1-7.4-5.8-4.2-.1.1-.6.7-.2.2.4-.4.1-.1 0-.1l-.8.8c-.4.4-.6.9-1 1.3-.3.4-.7.8-1.1 1.2l-.6.6c-.1.1-.4.4 0 0l-.2.2c-1.8 1.9-3.8 3.6-5.8 5.2-2.2 1.8-4.5 3.4-6.9 4.9-.6.4-1.1.7-1.7 1-.7.4.2-.1-.3.2-.3.2-.7.4-1 .5-1.1.6-2.3 1.1-3.4 1.6s-2.3.9-3.4 1.2c-.5.1-1.1.3-1.6.4l.4-.1c-.1 0-.3.1-.4.1-.3 0-.6.1-.9.1-.5.1-.9.1-1.4.1h-.7c-.8 0 .7.1 0 0-.4-.1-.8-.1-1.1-.2-.1 0-.2-.1-.3-.1-.4-.1.2-.2.4.2-.1-.1-.5-.2-.6-.3s-.3-.3-.4-.3c.6.1.6.6.2.1l-.4-.4c-.4-.4.6.8.1.1-.1-.2-.2-.4-.4-.6-.1-.1.4.9.1.2-.3-.8-.5-1.5-.8-2.3-.6-2-1.2-4-1.8-6.1-.2-.9-.5-1.8-.7-2.8 0 0-.2-.7-.1-.2.1.4-.1-.3-.1-.4-.1-.5-.2-1-.4-1.5-.7-3.2-1.3-6.5-1.7-9.8-.2-1.5-.3-2.9-.4-4.4 0-.7-.1-1.3-.1-2v.3-1.7c.1-2.4.3-4.7.8-7 .1-.2.1-.5.2-.8-.2.6-.1.4 0-.1s.3-1.1.4-1.6c.3-1 .6-1.9 1-2.9.2-.4.4-.9.6-1.3.1-.3.3-1 0 0 .1-.2.2-.5.4-.7.4-.8.9-1.6 1.4-2.3.5-.8 1.1-1.5 1.7-2.2.3-.3.6-.7.9-1 .5-.6-.4.4 0 0l.5-.5c2.6-2.6 5.6-4.8 8.7-6.7.8-.5 1.6-1 2.5-1.5.4-.2.8-.5 1.2-.7.1-.1.2-.1.3-.1.4-.2-.6.4-.2.1.2-.1.5-.3.7-.4 1.7-.9 3.4-1.9 5.2-2.8 3.8-2.1 7.6-4.1 11.2-6.5.9-.6 1.8-1.2 2.6-1.8 3.4-2.1-.5-8.5-4.1-6"/><path d="M179 227.5c-12 8.5-10.3 25.8-6.9 38.2 1.6 5.9 3.8 11.7 6.8 17 1.1 1.9 2.2 3.7 3.7 5.2 2 2.1 4.5 3.6 7.5 3.8 2.6.1 5.3-1 7.8-1.9 4.5-1.7 8.9-3.9 12.8-6.7 4.1-3 7.8-6.6 11.1-10.5 1.3-1.6.6-4.3-.8-5.6-1.6-1.5-3.5-1.2-4.9.3-2.6 2.8-5.2 5.6-8.5 8.1-1.5 1.1-3 2.2-4.6 3.1-.1.1-1.2.7-.7.4-.4.2-.8.5-1.2.7-.9.5-1.8.9-2.8 1.3-1.9.9-3.9 1.6-5.9 2.3-1 .3-1.7.6-2.7.6-.4 0-.8-.1-.9-.1.2.1-1.2-.7-.8-.4-.6-.5-1.1-1.1-1.7-1.6-.4-.4.7.9.2.3-.1-.2-.2-.3-.4-.5-.5-.7-1-1.5-1.5-2.3-.2-.4-.5-.8-.7-1.3-.1-.2-.3-.5-.4-.7-.1-.1-.1-.2-.2-.4-.3-.6 0 .1.1.3-.4-.4-.6-1.2-.8-1.6-.3-.6-.6-1.2-.8-1.9-1.1-2.6-2.1-5.4-3-8.1-.2-.7-.4-1.5-.6-2.2-.1-.4-.2-.7-.3-1.1-.1-.2-.1-.4-.1-.6q.15.75 0 0c-.4-1.5-.7-3.1-.9-4.7-.2-1.5-.4-3-.5-4.6-.1-.8-.1-1.5-.1-2.3v.1-1.8c.1-1.6.2-3.2.5-4.8.1-.3.3-1.3.1-.5l.3-1.2c.2-.7.5-1.5.8-2.2.1-.4.3-.7.5-1 .1-.1.3-.6.1-.2s.1-.2.2-.3c.4-.6.8-1.3 1.2-1.9.2-.3.5-.7.8-1 .1-.1.2-.2.3-.4-.3.3-.2.2.1 0 .6-.6 1.2-1.1 1.9-1.6 3.1-2.1-.6-8.1-4.1-5.7"/><path d="M191.4 284.2c-3.4 3.2-6.4 6.8-8.6 11s-3.6 8.6-4.4 13.3c-1.6 9.1 0 19 4.5 27.1 1.5 2.7 3.6 4.6 6.6 5.2 2.6.6 5.5.5 8.1.1 6.9-1 13.6-3.2 20.1-6 3.6-1.5 7.1-3.2 10.4-5.2 1.2-.7 2.5-1.5 3.6-2.4 1.3-1 2.3-2 2.9-3.6.5-1.3.1-3-.8-4-.8-.9-2.2-1.7-3.4-1.1-2 1-3.7 2.5-5.6 3.7-.5.3-1 .6-1.6.9-.1.1-.3.2-.4.2.8-.5.3-.1.1 0-.3.2-.6.4-1 .5-1.4.7-2.7 1.4-4.1 2-5.9 2.7-12 5-18.4 6.5-.3.1-.7.1-1 .2.9-.2-.1 0-.3.1l-2.1.3c-1.3.2-2.6.3-3.9.2h-.8c-.8 0 .4.1 0 0-.5-.1-1-.1-1.5-.3-.1 0-.6-.2-.6-.2.1-.2.9.5.1 0-.1-.1-.3-.2-.5-.3.6.2.5.6.2.1-.4-.6.7 1 .2.2-.2-.4-.5-.7-.7-1.1s-.4-.7-.6-1.1c.1.1.4.8.1.1-.1-.3-.3-.6-.4-.9-.8-1.9-1.4-3.8-1.9-5.7-.2-.8-.1-.2 0 0-.1-.2-.1-.5-.2-.7-.1-.5-.2-1.1-.3-1.6-.2-1.1-.4-2.1-.5-3.2-.1-1-.2-1.9-.2-2.9v-.6c0-.5.1-1 .1-1.5.1-1.2.3-2.4.5-3.6l.3-1.8c.1-.2.1-.5.1-.7.1-.4-.1.3.1-.3.5-2.2 1.2-4.3 2.1-6.4.6-1.3.7-1.5 1.3-2.5.5-1 1.1-1.9 1.8-2.8 1.4-2 2.9-3.7 4.6-5.3 1.4-1.3 1.5-3.4.5-5-.9-1.2-3.1-2.2-4.5-.9"/><path d="M198.6 332.8c-5.8 4.7-6.4 12.4-6.5 19.4-.1 3.7-.3 7.4-.3 11 0 4.7.6 9.4 1.7 14 1 4.3 2.2 8.7 4 12.7 1.6 3.7 3.8 7.3 7.3 9.5 7.9 5 16.5-1.5 22.6-6.3 3.1-2.5 6.2-5.2 9.3-7.8 1.2-1 2.4-2 3.7-2.9.5-.3 1-.6 1.4-.9 0 0-.8.3-.1.1.2-.1.4-.1.5-.2 1.8-.4 2.3-3 1.9-4.5-.4-1.6-2-3.6-3.8-3.3-2.3.4-4.2 1.8-6 3.2-2.4 1.9-4.8 3.9-7.1 5.9-2.6 2.2-5.3 4.5-8.1 6.5-2.7 2-5.8 4.1-9.1 4-.2 0-.5 0-.9-.1-.2 0-1.1-.3-.5-.1-.4-.1-.7-.3-1.1-.5-.1-.1-.3-.2-.4-.3.3.2.2.2 0 0-.3-.3-.6-.5-.9-.8l-.4-.4c.1.1.4.5.1.1-.4-.7-.9-1.3-1.4-2.1-.1-.2-.2-.3-.3-.5.1.1.3.7 0 0-.1-.3-.3-.6-.4-1-.3-.8-.6-1.5-.9-2.3-.7-2-1.4-3.9-1.9-5.9-1.1-3.7-1.9-7.7-2.2-11.9-.3-3.4.1-6.8.1-10.3 0-3.6-.1-7.3.4-10.8.1-.4.1-.8.2-1.2 0-.1.1-.7 0-.1.1-.2.1-.4.2-.6.2-.8.5-1.5.8-2.3.1-.1.1-.3.2-.4-.2.3-.1.2 0-.1.2-.4.4-.7.7-1.1.1-.1.2-.2.3-.4.1-.1.5-.6.2-.2.3-.3.6-.6 1-.9 1.5-1.2 1.5-3.6.5-5.1-1.2-1.5-3.3-2.3-4.8-1.1"/><path d="M204.1 399.9c6.9 4.3 14.3 7.8 21.8 11 6.8 2.9 13.6 5.6 20.5 8.1l5.1 1.8c1.9.7 3.5-1.2 3.7-2.9.2-2.1-1.1-3.8-2.9-4.5l.3.1c-.6-.2-1.1-.4-1.6-.6-.9-.3-1.8-.6-2.6-1-2.8-1-5.6-2.1-8.4-3.1-1.7-.7-3.4-1.3-5.2-2-.2-.1-.5-.2-.8-.3-.5-.2.4.2-.1 0s-.9-.4-1.4-.6l-3-1.2c-3.9-1.6-7.8-3.3-11.6-5.1-3.9-1.8-7.8-3.8-11.4-6-1.5-.9-3.5-.1-4.1 1.5-.7 1.8.2 3.8 1.7 4.8M279.5 157.8c-1 5-2 10-2.9 15-.6 3.3.9 6.4 4.2 7.4 1.7.5 3.5.9 5.3 1.4 8.2 2.2 16.3 4.6 24.5 6.9 4.3 1.2 8.6 2.5 13 3.4 2 .4 3.8-1 4-3 .1-2.1-1-4.2-3.1-4.8-7.3-2-14.6-3.9-21.9-5.9-3.8-1.1-7.6-2.1-11.4-3.1-1.8-.5-3.5-.9-5.3-1.4l-2.4-.6c-.4-.1-.9-.2-1.3-.3-.1 0-.4-.1-.5-.1-.7-.2-.4.3.8 1.4.6 1.7 1 2.1 1 1.1.7-2.4.9-5.1 1.4-7.5l1.5-8.1c.4-1.9-1.1-4.1-3-4.6-2.2-.6-3.5 1-3.9 2.8M277.1 207.6c-1.2 5.2-2.3 10.4-3.5 15.5-.6 2.5-1.9 5.7-.8 8.2.7 1.6 2 2.8 3.6 3.2 1.2.3 2.5.3 3.6.4 10.2 1.1 20.5 2.8 30.5 5.1 5.7 1.3 11.3 2.7 16.9 4.3 2 .6 3.9-1.1 4-3.1.1-2.1-1-4.3-3.2-4.9-9.1-2.6-18.4-4.8-27.8-6.4-4.8-.8-9.5-1.6-14.4-2.1-2.5-.3-4.9-.6-7.4-.8-.3 0-.6-.1-1-.1-.6-.1-.2 0-.1 0-.1 0-.2 0-.3-.1.7 1 1.3 2.1 2 3.1.1-.1.1-.4.1-.6l.9-3.9c1.2-5.4 2.4-10.9 3.6-16.3.4-1.9-1.2-4.2-3-4.6-2.1-.4-3.3 1.2-3.7 3.1M262.7 263c-1.5 4.9-2.5 10-3 15.1-.1 1.2-.2 2.4-.2 3.5-.1 1.6-.3 3.3.3 4.8 1.2 3.2 4.1 3.6 7.1 4.1 10.3 1.9 20.6 3.9 30.9 5.8 5.9 1.1 11.8 2.2 17.6 3.3 4.9.9 5.2-7.1.8-7.9-9.4-1.7-18.8-3.5-28.2-5.1-4.7-.9-9.5-1.7-14.2-2.6-2.4-.4-4.7-.9-7.1-1.3-.6-.1-1.1-.2-1.7-.3-.1 0-.5-.1-.6-.1.1 0 2 2.3 1.9 2.5.2-.3 0-1.1 0-1.4 0-.6 0-1.3.1-1.9.3-5.1 1.2-10 2.6-14.9.6-1.9-.1-4.2-1.9-5.2-1.6-.9-3.8-.2-4.4 1.6M246.5 322.8c-.3 4.6-.6 9.1-.9 13.7-.1 2.2-.6 4.7-.2 6.9.5 2.7 2.2 4.8 4.7 5.8 1.8.7 3.6.9 5.5 1.2 2.1.4 4.2.9 6.2 1.4q6.15 1.5 12 3.6c2.1.8 4.1 1.5 6.1 2.4 2.3 1 4.7 2.5 7.1 3.1 3.8 1 5-4.7 2.4-6.6-1.7-1.3-3.7-2.1-5.7-3l-5.7-2.4c-3.7-1.4-7.4-2.7-11.2-3.8-3.7-1-7.5-1.9-11.3-2.6-.8-.1-1.6-.3-2.5-.4l-1.2-.3c-.5-.1.1 0 .1 0-.1 0-.2-.1-.3-.1.1.1.2.1.2.2-.1.1-.8-1 0 .2-.1-.2.3.7.3.7s-.1-.6-.1-.3v-.3c.1-1 .1-2.1.2-3.1l.9-14.7c.1-2-1-4.1-3-4.6-1.7-.3-3.5 1.1-3.6 3M524.3 220c-8.8 15.4 1.3 36.9 15.5 45.5 7.5 4.6 17.7 5.6 25.4.9 6.3-3.9 10.1-11.5 9.1-18.9-1.9-14.8-23.6-20-29-4.6-5.4 15.5 6.5 33.1 19.4 40.7 17.3 10.2 40.6 6 53.8-8.8 2-2.2-1.4-6.9-4-4.7-12 10.3-28.5 16.1-43.8 9.3-6.3-2.8-11.8-7.5-15.5-13.3s-7.4-15.8-3-22.2c4.3-6.3 15-3.4 16.1 4 1.2 8.2-6.6 14.3-14 14.8-17 1-33.2-22.8-25.1-38.1 1.3-3.3-2.9-8.2-4.9-4.6M558.8 55.2c-4.2-17-27-25.2-42.7-21.2-15.2 3.9-25 22.2-13.6 35.3 10.3 11.9 31.6 2.2 26.2-13.7-5.7-16.5-28.1-21.1-43.1-17.3-19.3 5-32.3 24.4-31.6 43.9.1 3.2 5.2 4.2 5.5.6 1.3-15.5 9.1-30.5 24.3-36.4 7.5-2.9 15.8-3.3 23.5-1 6.5 1.9 19.2 8.6 15.5 17.2-3.2 7.3-13.5 6.9-17.3.6-4.2-7.1-.2-15.2 6-19.4 12.8-8.6 37.6-2.2 42 13.5 1.2 4 6.3 1.9 5.3-2.1M142.2 41.1C129.4 52 131.4 74.4 140.5 87c9.2 12.8 31.4 17.4 38.9.1 6.1-14.3-12.1-31.3-24.1-18.6-11.3 12-5.8 33.4 3.4 44.9 12.5 15.6 36.2 20.6 53.8 10.9 3-1.7 1.2-7.3-2.2-6-14.9 5.8-32.4 5.5-44.4-6.2-5.2-5.1-8.8-11.9-10-19.1-1.1-6.8-.6-17.2 6.2-21 8.6-4.8 15.6 6.3 10.7 13.5-4.8 7-13.9 7.6-20.8 3.6-13-7.5-17.7-32.1-6-42.7 2.4-2.3-.9-7.9-3.8-5.3M248.6 394h182v7h-182zM356.5 91.2h.1zh-.2zM357.2 96.3h-.3.3"/></svg>