<?xml version="1.0" encoding="UTF-8" standalone="no"?><svg xmlns="http://www.w3.org/2000/svg" width="30" height="30" viewBox="0 0 30 30.000002"><g transform="translate(-33.112)"><path d="M48.112 8.8c-3.425 0-6.2 2.775-6.2 6.2 0 3.425 2.775 6.202 6.2 6.202 3.425 0 6.2-2.777 6.2-6.202s-2.775-6.2-6.2-6.2zm0 11.422c-2.884-.005-5.217-2.337-5.222-5.222.005-2.884 2.338-5.216 5.222-5.222 2.884.006 5.216 2.338 5.222 5.222-.006 2.885-2.338 5.217-5.222 5.222z" fill="none"/><path d="M50.88 15.695l-2.074 2.073c1.02-.255 1.818-1.055 2.073-2.073zM47.418 17.768l-2.073-2.073c.255 1.018 1.055 1.818 2.073 2.073zM48.807 12.233l2.072 2.073c-.256-1.018-1.055-1.818-2.073-2.073zM45.345 14.306l2.072-2.073c-1.017.255-1.817 1.055-2.072 2.073z" fill="none"/><path d="M59.263 16.542l-1.92 1.92 1.074 1.075c.414-.94.703-1.943.846-2.995zM52.648 4.695c-.938-.414-1.943-.703-2.995-.847l1.92 1.92 1.075-1.073zM38.61 8.96l1.487 1.486c.82-1.442 2.02-2.64 3.46-3.46l-1.484-1.487c-.696.442-1.342.958-1.923 1.54-.58.58-1.096 1.225-1.54 1.92zM46.572 3.848c-1.052.144-2.058.433-2.996.846L44.65 5.77l1.922-1.922zM37.807 19.537l1.074-1.075-1.92-1.92c.144 1.05.433 2.056.847 2.995zM57.613 21.04l-1.486-1.486c-.82 1.443-2.02 2.64-3.46 3.462l1.484 1.486c.697-.443 1.343-.958 1.924-1.54.58-.58 1.095-1.226 1.54-1.922zM49.653 26.153c1.052-.144 2.057-.433 2.995-.847l-1.075-1.074-1.92 1.92zM40.097 19.555L38.61 21.04c.444.696.96 1.342 1.54 1.923.58.58 1.227 1.096 1.923 1.54l1.486-1.486c-1.444-.822-2.642-2.02-3.463-3.462zM43.576 25.307c.938.413 1.943.702 2.995.846l-1.92-1.92-1.074 1.074zM37.807 10.464c-.414.94-.703 1.944-.847 2.996l1.92-1.92-1.073-1.076zM46.86 24.134l1.252 1.252 1.252-1.252c-.41.056-.827.087-1.252.087-.425 0-.842-.03-1.252-.086zM56.516 15c0-.8-.114-1.57-.322-2.303l-1.16-1.158.494-.494c-.392-.734-.89-1.404-1.474-1.99-.584-.583-1.254-1.08-1.988-1.472l-.493.493-1.158-1.16c-.732-.207-1.504-.32-2.303-.32-.8 0-1.57.113-2.303.32l-1.16 1.16-.493-.493c-.734.392-1.403.89-1.988 1.473-.585.585-1.082 1.254-1.474 1.99l.493.492-1.16 1.158c-.208.732-.322 1.503-.322 2.302 0 .8.113 1.57.322 2.303l1.16 1.16-.494.492c.392.734.89 1.404 1.473 1.988.583.584 1.253 1.082 1.987 1.474l.493-.493 1.16 1.16c.73.207 1.502.32 2.302.32s1.57-.113 2.303-.32l1.158-1.16.493.493c.734-.392 1.404-.89 1.988-1.474.584-.584 1.08-1.254 1.473-1.988l-.492-.493 1.158-1.158c.21-.732.323-1.504.323-2.303zm-8.404 6.202c-3.425 0-6.2-2.777-6.2-6.202s2.775-6.2 6.2-6.2c3.425 0 6.2 2.775 6.2 6.2 0 3.425-2.775 6.202-6.2 6.202z" fill="#36c"/><path d="M48.112 9.778c-2.884.006-5.217 2.338-5.222 5.222.005 2.885 2.338 5.217 5.222 5.222 2.884-.005 5.216-2.337 5.222-5.222-.006-2.884-2.338-5.216-5.222-5.222zm.694 7.99l-.694.694-.694-.694c-1.018-.255-1.818-1.055-2.073-2.073L44.65 15l.695-.694c.255-1.018 1.055-1.818 2.072-2.073l.695-.694.695.693c1.018.255 1.817 1.055 2.072 2.073l.694.694-.695.695c-.256 1.018-1.055 1.818-2.074 2.073zM61.96 11.54l-2.31-2.31-.74.74c.52 1.115.872 2.323 1.024 3.593l2.025-2.024zM58.417 10.464l-1.074 1.075 1.92 1.92c-.143-1.053-.432-2.057-.846-2.996zM38.892 15c0-.424.03-.84.087-1.25L37.726 15l1.252 1.252c-.057-.41-.088-.826-.088-1.25zM56.127 10.446l1.486-1.485c-.443-.695-.958-1.34-1.54-1.922-.58-.58-1.226-1.096-1.922-1.54l-1.484 1.487c1.442.82 2.64 2.02 3.46 3.46zM58.497 15l-1.252-1.252c.055.41.087.827.087 1.253 0 .426-.032.843-.087 1.253L58.497 15zM49.364 5.867l-1.252-1.252-1.252 1.252c.41-.056.827-.087 1.252-.087.425 0 .842.03 1.252.087zM58.91 20.03l.74.74 2.31-2.308-2.025-2.024c-.153 1.27-.505 2.478-1.025 3.592zM38.14 21.513l-.412.41 3.46 3.463.413-.412c-1.378-.902-2.56-2.082-3.46-3.46zM42.343 26.54l2.308 2.308 2.024-2.024c-1.27-.153-2.477-.504-3.59-1.024l-.74.74zM48.113 30l-1.154-1.154 1.153-1.154 1.154 1.154zM37.314 20.03c-.52-1.114-.872-2.322-1.025-3.59l-2.024 2.022 2.308 2.308.74-.74zM37.728 26.54l-1.154-1.156 1.154-1.154 1.154 1.155zM58.497 26.538l-1.154-1.154 1.154-1.154 1.154 1.154zM58.498 3.463l1.154 1.154-1.154 1.154-1.154-1.153zM49.55 26.824l2.024 2.024 2.307-2.308-.74-.74c-1.113.52-2.32.87-3.59 1.024zM58.085 21.512c-.902 1.38-2.083 2.56-3.462 3.462l.412.412 3.462-3.462-.412-.412zM38.14 8.49c.9-1.38 2.08-2.56 3.46-3.463l-.41-.412-3.463 3.462.412.412zM53.88 3.46l-2.307-2.307-2.023 2.024c1.27.153 2.477.504 3.59 1.024l.74-.74zM48.113 0l1.154 1.153-1.154 1.155-1.154-1.154zM34.266 13.846L35.42 15l-1.154 1.154L33.112 15zM58.085 8.49l.412-.413-3.462-3.462-.412.412c1.38.902 2.56 2.082 3.462 3.462zM46.674 3.177L44.65 1.153 42.344 3.46l.74.74c1.114-.52 2.322-.87 3.59-1.023zM37.313 9.97l-.74-.74-2.307 2.31 2.023 2.022c.152-1.27.504-2.477 1.023-3.59zM60.804 15l1.154-1.154L63.112 15l-1.154 1.154zM37.728 3.462l1.154 1.154-1.154 1.154-1.154-1.154z" fill="#36c"/><path fill="#36c" d="M41.24 4.582l3.47 3.477-3.505 3.503-3.47-3.478zM44.674 1.152l2.317 2.322-2.34 2.34-2.316-2.322zM51.596 1.153l2.317 2.322-2.34 2.34-2.318-2.323zM59.64 9.243l2.317 2.322-2.34 2.34L57.3 11.58zM59.64 16.164l2.317 2.322-2.34 2.34-2.318-2.323zM51.64 24.21l2.318 2.32-2.34 2.34-2.318-2.322zM44.674 24.254l2.317 2.322-2.34 2.34-2.316-2.323zM36.584 16.164l2.317 2.32-2.34 2.34-2.316-2.32zM41.234 18.438l3.47 3.477L41.2 25.42l-3.472-3.48zM55.057 18.438l3.47 3.478-3.505 3.503-3.47-3.48zM55.026 4.613l3.47 3.478-3.505 3.504-3.47-3.478zM36.588 9.237l2.316 2.322-2.34 2.338-2.317-2.322zM51.453 7.944l-6.608-.06 3.267-3.266zM41.07 11.663l-.08 6.607-3.255-3.276zM55.16 18.327l.056-6.608 3.29 3.264zM44.772 22.044l6.61.042-3.26 3.297z"/><circle r="4.041" cy="15" cx="48.112" fill="none" stroke="#36c" stroke-width="2.336" stroke-linecap="round" stroke-dashoffset=".39"/></g></svg>