<svg xmlns="http://www.w3.org/2000/svg" width="264" height="162" viewBox="0 0 264 162">
  <g transform="matrix(-1 0 0 1 264 0)" fill="none">
    <path d="M24.833 151.362l-11.467 9.995L.5 151.75V.5h263v151.75l-9 6.704V42.5h-39v112.6l-4.393-3.73-7.607 5.33V42.5h-155v110.85l-9.75 8.03-13.917-10.018z" fill="#fff"/>
    <path d="M263 1v150.998l-8 5.96V42h-40v112.02l-3.274-2.78-.59-.5-.632.44L204 155.74V42H48v111.1l-9.257 7.66-13.295-9.57-.644-.464-.598.52-10.864 9.47L1 151.5V1h262zm1-1H0v152l13.39 10 11.474-10 13.89 10L49 153.6V43h154v114.66l8.078-5.66 4.922 4.18V43h38v116.95l10-7.45V0z" fill="#e5e5e5"/>
    <path d="M203 157.66V43H49v110.6l2.145-1.6L63.7 162l13.81-10 14.228 10 12.972-10 12.973 10 13.81-10 12.137 10 13.39-10 14.23 10 12.972-10 12.974 10 5.804-4.34zM11 36c0-7.732 6.268-14 14-14s14 6.268 14 14-6.268 14-14 14-14-6.268-14-14c0 0 0 7.732 0 0zM254 159.95V43h-38v113.18l7.55 5.82 13.812-10 13.89 10 2.748-2.05zM38 99V72H13v27h25zM38 136v-16H13v16h25z" fill="#e5e5e5"/>
    <path d="M38 117v-16H13v16h25z" fill="#36c"/>
    <path d="M233 5h26v6h-26V5zM142 6v4H50V6h92zm1-1H49v6h94V5zM9 5h32v6H9z" fill="#e5e5e5"/>
    <path d="M2 15h260" fill="#e5e5e5" stroke="#e5e5e5"/>
    <path fill="#e5e5e5" d="M52 7h2v2h-2zM38 59v-5H13v5h25z"/>
    <path d="M228.51 5v6H216V5h12.51zM212.51 5v6H200V5h12.51zM196.51 5v6H184V5h12.51z" fill="#d8d8d8"/>
    <g fill="#fff">
      <path d="M31.525 102.732h4.243v4.243"/>
      <path d="M33.293 103.793l1.414 1.414-1.768 1.768-1.415-1.414z"/>
    </g>
    <g fill="#fff">
      <path d="M35.768 110.025v4.243h-4.243"/>
      <path d="M34.707 111.793l-1.414 1.414-1.768-1.768 1.414-1.415z"/>
    </g>
    <g fill="#fff">
      <path d="M19.475 114.268h-4.243v-4.243"/>
      <path d="M17.707 113.207l-1.414-1.414 1.768-1.768 1.415 1.414z"/>
    </g>
    <g fill="#fff">
      <path d="M15.232 106.975v-4.243h4.243"/>
      <path d="M16.293 105.207l1.414-1.414 1.768 1.768-1.414 1.415z"/>
    </g>
    <circle cx="25.5" cy="108.5" r="3.5" fill="#fff"/>
  </g>
</svg>
