<?xml version="1.0" encoding="UTF-8" standalone="no"?>
<svg xmlns="http://www.w3.org/2000/svg" width="11" height="23">
<rect style="fill:#ffffff;stroke:#4d4d4d" width="10" height="10" ry="0.5" x="0.5" y="0.5" />
<path style="fill:#000000" d="M 5.447,5.607 C 5.563,5.52 5.759,5.385 6.034,5.203 6.317,5.015 6.538,4.861 6.697,4.742 6.864,4.622 7.02,4.466 7.165,4.271 7.31,4.070 7.382,3.87 7.382,3.669 7.382,3.380 7.262,3.151 7.023,2.982 6.791,2.807 6.494,2.718 6.132,2.718 5.263,2.718 4.636,3.176 4.252,4.092 L 3.295,3.989 C 3.795,2.690 4.795,2.041 6.295,2.041 c 0.623,0 1.127,0.125 1.511,0.377 C 8.19,2.662 8.382,3.010 8.382,3.462 8.382,3.757 8.299,4.036 8.132,4.299 7.965,4.557 7.777,4.764 7.567,4.921 7.364,5.071 7.114,5.253 6.817,5.466 6.52,5.679 6.299,5.855 6.154,5.993 5.85,6.288 5.625,6.702 5.48,7.235 l -0.967,0 0.098,-0.386 C 4.676,6.599 4.792,6.360 4.958,6.134 5.132,5.902 5.295,5.727 5.447,5.607 M 4.056,8.891 4.284,7.950 l 1.087,0 -0.228,0.941 -1.087,0" />
<rect style="fill:#ffffff;stroke:#0645ad" width="10" height="10" ry="0.5" x="0.5" y="12.5" />
<path style="fill:#0645ad" d="M 5.447,17.607 C 5.563,17.52 5.759,17.385 6.034,17.203 6.317,17.015 6.538,16.861 6.697,16.742 6.864,16.622 7.02,16.466 7.165,16.271 7.31,16.070 7.382,15.87 7.382,15.669 7.382,15.380 7.262,15.151 7.023,14.982 6.791,14.807 6.494,14.718 6.132,14.718 c -0.87,0 -1.496,0.458 -1.880,1.374 L 3.295,15.989 c 0.5,-1.299 1.5,-1.948 3,-1.948 0.623,0 1.127,0.125 1.511,0.377 0.384,0.245 0.576,0.593 0.576,1.045 -6.4e-6,0.295 -0.083,0.574 -0.25,0.837 -0.167,0.257 -0.355,0.464 -0.565,0.621 -0.203,0.151 -0.453,0.332 -0.75,0.546 -0.297,0.214 -0.518,0.389 -0.663,0.527 -0.304,0.295 -0.529,0.709 -0.674,1.242 l -0.967,0 0.098,-0.386 c 0.065,-0.251 0.181,-0.489 0.348,-0.715 0.174,-0.232 0.337,-0.408 0.489,-0.527 m -1.391,3.284 0.228,-0.941 1.087,0 -0.228,0.941 -1.087,0" />
</svg>