<?xml version="1.0" encoding="UTF-8" standalone="no"?><svg xmlns="http://www.w3.org/2000/svg" xmlns:xlink="http://www.w3.org/1999/xlink" contentScriptType="application/ecmascript" contentStyleType="text/css" height="872px" preserveAspectRatio="none" style="width:1819px;height:872px;" version="1.1" viewBox="0 0 1819 872" width="1819px" zoomAndPan="magnify"><defs><filter height="300%" id="fkevrcchwhhle" width="300%" x="-1" y="-1"><feGaussianBlur result="blurOut" stdDeviation="2.0"/><feColorMatrix in="blurOut" result="blurOut2" type="matrix" values="0 0 0 0 0 0 0 0 0 0 0 0 0 0 0 0 0 0 .4 0"/><feOffset dx="4.0" dy="4.0" in="blurOut2" result="blurOut3"/><feBlend in="SourceGraphic" in2="blurOut3" mode="normal"/></filter></defs><g><!--MD5=[045599ce58c7e5c7d48c5f534dab8ee6]
cluster REST API--><polygon fill="#FFFFFF" filter="url(#fkevrcchwhhle)" points="22,157,89,157,96,182.0679,571,182.0679,571,350,22,350,22,157" style="stroke: #000000; stroke-width: 1.5;"/><line style="stroke: #000000; stroke-width: 1.5;" x1="22" x2="96" y1="182.0679" y2="182.0679"/><text fill="#000000" font-family="sans-serif" font-size="14" font-weight="bold" lengthAdjust="spacingAndGlyphs" textLength="61" x="26" y="173.9659">REST API</text><!--MD5=[7b76cfe7b864997a6d9c59335f3fe863]
cluster Action API--><polygon fill="#FFFFFF" filter="url(#fkevrcchwhhle)" points="595,157,674,157,681,182.0679,1797,182.0679,1797,860,595,860,595,157" style="stroke: #000000; stroke-width: 1.5;"/><line style="stroke: #000000; stroke-width: 1.5;" x1="595" x2="681" y1="182.0679" y2="182.0679"/><text fill="#000000" font-family="sans-serif" font-size="14" font-weight="bold" lengthAdjust="spacingAndGlyphs" textLength="73" x="599" y="173.9659">Action API</text><!--MD5=[c6348f98a6dbaaa41a93f16d8bef2fde]
cluster Use Cases--><polygon fill="#FFFFFF" filter="url(#fkevrcchwhhle)" points="72,383,147,383,154,408.0679,529,408.0679,529,594,72,594,72,383" style="stroke: #000000; stroke-width: 1.5;"/><line style="stroke: #000000; stroke-width: 1.5;" x1="72" x2="154" y1="408.0679" y2="408.0679"/><text fill="#000000" font-family="sans-serif" font-size="14" font-weight="bold" lengthAdjust="spacingAndGlyphs" textLength="69" x="76" y="399.9659">Use Cases</text><!--MD5=[8c61485776175d6a928fbf99c617359e]
cluster CirrusSearch--><polygon fill="#FFFFFF" filter="url(#fkevrcchwhhle)" points="227,665,320,665,327,690.0679,407,690.0679,407,758,227,758,227,665" style="stroke: #000000; stroke-width: 1.5;"/><line style="stroke: #000000; stroke-width: 1.5;" x1="227" x2="327" y1="690.0679" y2="690.0679"/><text fill="#000000" font-family="sans-serif" font-size="14" font-weight="bold" lengthAdjust="spacingAndGlyphs" textLength="87" x="231" y="681.9659">CirrusSearch</text><!--MD5=[ddf6663a3210c91d2e98a7905938afe3]
entity SuggestItemsRoute--><rect fill="#FEFECE" filter="url(#fkevrcchwhhle)" height="39.0679" style="stroke: #A80036; stroke-width: 1.5;" width="121" x="149.5" y="195"/><rect fill="#FEFECE" height="5" style="stroke: #A80036; stroke-width: 1.5;" width="10" x="144.5" y="200"/><rect fill="#FEFECE" height="5" style="stroke: #A80036; stroke-width: 1.5;" width="10" x="144.5" y="224.0679"/><text fill="#000000" font-family="sans-serif" font-size="14" lengthAdjust="spacingAndGlyphs" textLength="101" x="159.5" y="219.9659">/suggest/items</text><!--MD5=[97e8176b2b9f3b546898aa6cb6cb97e4]
entity SuggestPropertiesRoute--><rect fill="#FEFECE" filter="url(#fkevrcchwhhle)" height="39.0679" style="stroke: #A80036; stroke-width: 1.5;" width="154" x="382" y="195"/><rect fill="#FEFECE" height="5" style="stroke: #A80036; stroke-width: 1.5;" width="10" x="377" y="200"/><rect fill="#FEFECE" height="5" style="stroke: #A80036; stroke-width: 1.5;" width="10" x="377" y="224.0679"/><text fill="#000000" font-family="sans-serif" font-size="14" lengthAdjust="spacingAndGlyphs" textLength="134" x="392" y="219.9659">/suggest/properties</text><!--MD5=[d0b1b5130309536b58db4edd0bfe8156]
entity ItemPrefixSearchRouteHandler--><rect fill="#FEFECE" filter="url(#fkevrcchwhhle)" height="39.0679" style="stroke: #A80036; stroke-width: 1.5;" width="228" x="38" y="295"/><rect fill="#FEFECE" height="5" style="stroke: #A80036; stroke-width: 1.5;" width="10" x="33" y="300"/><rect fill="#FEFECE" height="5" style="stroke: #A80036; stroke-width: 1.5;" width="10" x="33" y="324.0679"/><text fill="#000000" font-family="sans-serif" font-size="14" lengthAdjust="spacingAndGlyphs" textLength="208" x="48" y="319.9659">ItemPrefixSearchRouteHandler</text><!--MD5=[dd041635ee050562977c4f300994609c]
entity PropertyPrefixSearchRouteHandler--><rect fill="#FEFECE" filter="url(#fkevrcchwhhle)" height="39.0679" style="stroke: #A80036; stroke-width: 1.5;" width="254" x="301" y="295"/><rect fill="#FEFECE" height="5" style="stroke: #A80036; stroke-width: 1.5;" width="10" x="296" y="300"/><rect fill="#FEFECE" height="5" style="stroke: #A80036; stroke-width: 1.5;" width="10" x="296" y="324.0679"/><text fill="#000000" font-family="sans-serif" font-size="14" lengthAdjust="spacingAndGlyphs" textLength="234" x="311" y="319.9659">PropertyPrefixSearchRouteHandler</text><!--MD5=[474eeb70e749e87b7d811d6b0d9a23d1]
entity ItemWbSearchEntitiesRoute--><rect fill="#FEFECE" filter="url(#fkevrcchwhhle)" height="39.0679" style="stroke: #A80036; stroke-width: 1.5;" width="267" x="611.5" y="195"/><rect fill="#FEFECE" height="5" style="stroke: #A80036; stroke-width: 1.5;" width="10" x="606.5" y="200"/><rect fill="#FEFECE" height="5" style="stroke: #A80036; stroke-width: 1.5;" width="10" x="606.5" y="224.0679"/><text fill="#000000" font-family="sans-serif" font-size="14" lengthAdjust="spacingAndGlyphs" textLength="247" x="621.5" y="219.9659">?action=wbsearchentities&amp;type=item</text><!--MD5=[1fb7f55f5131ddb1c85f6cd6d5b150f4]
entity PropertyWbSearchEntitiesRoute--><rect fill="#FEFECE" filter="url(#fkevrcchwhhle)" height="39.0679" style="stroke: #A80036; stroke-width: 1.5;" width="295" x="913.5" y="195"/><rect fill="#FEFECE" height="5" style="stroke: #A80036; stroke-width: 1.5;" width="10" x="908.5" y="200"/><rect fill="#FEFECE" height="5" style="stroke: #A80036; stroke-width: 1.5;" width="10" x="908.5" y="224.0679"/><text fill="#000000" font-family="sans-serif" font-size="14" lengthAdjust="spacingAndGlyphs" textLength="275" x="923.5" y="219.9659">?action=wbsearchentities&amp;type=property</text><!--MD5=[8874ebff350a6f28a898b0549ef4e667]
entity LexemeWbSearchEntitiesRoute--><rect fill="#FEFECE" filter="url(#fkevrcchwhhle)" height="39.0679" style="stroke: #A80036; stroke-width: 1.5;" width="285" x="1243.5" y="195"/><rect fill="#FEFECE" height="5" style="stroke: #A80036; stroke-width: 1.5;" width="10" x="1238.5" y="200"/><rect fill="#FEFECE" height="5" style="stroke: #A80036; stroke-width: 1.5;" width="10" x="1238.5" y="224.0679"/><text fill="#000000" font-family="sans-serif" font-size="14" lengthAdjust="spacingAndGlyphs" textLength="265" x="1253.5" y="219.9659">?action=wbsearchentities&amp;type=lexeme</text><!--MD5=[b4748774af247d503dca27bb0888eefb]
entity QuerySearchEntitiesRoute--><rect fill="#FEFECE" filter="url(#fkevrcchwhhle)" height="39.0679" style="stroke: #A80036; stroke-width: 1.5;" width="217" x="1563.5" y="195"/><rect fill="#FEFECE" height="5" style="stroke: #A80036; stroke-width: 1.5;" width="10" x="1558.5" y="200"/><rect fill="#FEFECE" height="5" style="stroke: #A80036; stroke-width: 1.5;" width="10" x="1558.5" y="224.0679"/><text fill="#000000" font-family="sans-serif" font-size="14" lengthAdjust="spacingAndGlyphs" textLength="197" x="1573.5" y="219.9659">?action=query&amp;list=wbsearch</text><!--MD5=[5a3e42f436fed1b539e80bcff7de0c58]
entity SearchEntities--><rect fill="#FEFECE" filter="url(#fkevrcchwhhle)" height="39.0679" style="stroke: #A80036; stroke-width: 1.5;" width="116" x="1078" y="295"/><rect fill="#FEFECE" height="5" style="stroke: #A80036; stroke-width: 1.5;" width="10" x="1073" y="300"/><rect fill="#FEFECE" height="5" style="stroke: #A80036; stroke-width: 1.5;" width="10" x="1073" y="324.0679"/><text fill="#000000" font-family="sans-serif" font-size="14" lengthAdjust="spacingAndGlyphs" textLength="96" x="1088" y="319.9659">SearchEntities</text><!--MD5=[006d44b5263c44e881ddbe2be8b775db]
entity QuerySearchEntities--><rect fill="#FEFECE" filter="url(#fkevrcchwhhle)" height="39.0679" style="stroke: #A80036; stroke-width: 1.5;" width="157" x="1348.5" y="295"/><rect fill="#FEFECE" height="5" style="stroke: #A80036; stroke-width: 1.5;" width="10" x="1343.5" y="300"/><rect fill="#FEFECE" height="5" style="stroke: #A80036; stroke-width: 1.5;" width="10" x="1343.5" y="324.0679"/><text fill="#000000" font-family="sans-serif" font-size="14" lengthAdjust="spacingAndGlyphs" textLength="137" x="1358.5" y="319.9659">QuerySearchEntities</text><!--MD5=[ad81a98a86164f3e03732f70d5a0019e]
entity TypeDispatchingEntitySearchHelper--><rect fill="#FEFECE" filter="url(#fkevrcchwhhle)" height="39.0679" style="stroke: #A80036; stroke-width: 1.5;" width="262" x="1151" y="421"/><rect fill="#FEFECE" height="5" style="stroke: #A80036; stroke-width: 1.5;" width="10" x="1146" y="426"/><rect fill="#FEFECE" height="5" style="stroke: #A80036; stroke-width: 1.5;" width="10" x="1146" y="450.0679"/><text fill="#000000" font-family="sans-serif" font-size="14" lengthAdjust="spacingAndGlyphs" textLength="242" x="1161" y="445.9659">TypeDispatchingEntitySearchHelper</text><!--MD5=[ad371c86d9dbf04be101490049a5b884]
entity CombinedEntitySearchHelper--><rect fill="#FEFECE" filter="url(#fkevrcchwhhle)" height="39.0679" style="stroke: #A80036; stroke-width: 1.5;" width="218" x="858" y="703"/><rect fill="#FEFECE" height="5" style="stroke: #A80036; stroke-width: 1.5;" width="10" x="853" y="708"/><rect fill="#FEFECE" height="5" style="stroke: #A80036; stroke-width: 1.5;" width="10" x="853" y="732.0679"/><text fill="#000000" font-family="sans-serif" font-size="14" lengthAdjust="spacingAndGlyphs" textLength="198" x="868" y="727.9659">CombinedEntitySearchHelper</text><!--MD5=[60b3a49b742a690be78fee13a520c98f]
entity PropertyDataTypeSearchHelper--><rect fill="#FEFECE" filter="url(#fkevrcchwhhle)" height="39.0679" style="stroke: #A80036; stroke-width: 1.5;" width="231" x="1014.5" y="539"/><rect fill="#FEFECE" height="5" style="stroke: #A80036; stroke-width: 1.5;" width="10" x="1009.5" y="544"/><rect fill="#FEFECE" height="5" style="stroke: #A80036; stroke-width: 1.5;" width="10" x="1009.5" y="568.0679"/><text fill="#000000" font-family="sans-serif" font-size="14" lengthAdjust="spacingAndGlyphs" textLength="211" x="1024.5" y="563.9659">PropertyDataTypeSearchHelper</text><!--MD5=[15df543224d79cf589eca3df91ee0673]
entity LexemeSearchHelper--><rect fill="#FEFECE" filter="url(#fkevrcchwhhle)" height="39.0679" style="stroke: #A80036; stroke-width: 1.5;" width="162" x="1118" y="610"/><rect fill="#FEFECE" height="5" style="stroke: #A80036; stroke-width: 1.5;" width="10" x="1113" y="615"/><rect fill="#FEFECE" height="5" style="stroke: #A80036; stroke-width: 1.5;" width="10" x="1113" y="639.0679"/><text fill="#000000" font-family="sans-serif" font-size="14" lengthAdjust="spacingAndGlyphs" textLength="142" x="1128" y="634.9659">LexemeSearchHelper</text><!--MD5=[ef940cdb007189b3d29de52d968cdf95]
entity EntitySchemaSearchHelper--><rect fill="#FEFECE" filter="url(#fkevrcchwhhle)" height="39.0679" style="stroke: #A80036; stroke-width: 1.5;" width="202" x="1285" y="610"/><rect fill="#FEFECE" height="5" style="stroke: #A80036; stroke-width: 1.5;" width="10" x="1280" y="615"/><rect fill="#FEFECE" height="5" style="stroke: #A80036; stroke-width: 1.5;" width="10" x="1280" y="639.0679"/><text fill="#000000" font-family="sans-serif" font-size="14" lengthAdjust="spacingAndGlyphs" textLength="182" x="1295" y="634.9659">EntitySchemaSearchHelper</text><!--MD5=[ce402c300396f83dbfe2ed50081ad46f]
entity EntitySearchHelper--><rect fill="#FEFECE" filter="url(#fkevrcchwhhle)" height="39.0679" style="stroke: #A80036; stroke-width: 1.5;" width="149" x="1124.5" y="805"/><rect fill="#FEFECE" height="5" style="stroke: #A80036; stroke-width: 1.5;" width="10" x="1119.5" y="810"/><rect fill="#FEFECE" height="5" style="stroke: #A80036; stroke-width: 1.5;" width="10" x="1119.5" y="834.0679"/><text fill="#000000" font-family="sans-serif" font-size="14" lengthAdjust="spacingAndGlyphs" textLength="129" x="1134.5" y="829.9659">EntitySearchHelper</text><!--MD5=[7e98c68f6bf1151f514578024ec36813]
entity ItemPrefixSearch--><rect fill="#FEFECE" filter="url(#fkevrcchwhhle)" height="39.0679" style="stroke: #A80036; stroke-width: 1.5;" width="135" x="97.5" y="421"/><rect fill="#FEFECE" height="5" style="stroke: #A80036; stroke-width: 1.5;" width="10" x="92.5" y="426"/><rect fill="#FEFECE" height="5" style="stroke: #A80036; stroke-width: 1.5;" width="10" x="92.5" y="450.0679"/><text fill="#000000" font-family="sans-serif" font-size="14" lengthAdjust="spacingAndGlyphs" textLength="115" x="107.5" y="445.9659">ItemPrefixSearch</text><!--MD5=[c4b4d4e30dc7f7a2e4a6b1dff19e1c6d]
entity PropertyPrefixSearch--><rect fill="#FEFECE" filter="url(#fkevrcchwhhle)" height="39.0679" style="stroke: #A80036; stroke-width: 1.5;" width="161" x="345.5" y="421"/><rect fill="#FEFECE" height="5" style="stroke: #A80036; stroke-width: 1.5;" width="10" x="340.5" y="426"/><rect fill="#FEFECE" height="5" style="stroke: #A80036; stroke-width: 1.5;" width="10" x="340.5" y="450.0679"/><text fill="#000000" font-family="sans-serif" font-size="14" lengthAdjust="spacingAndGlyphs" textLength="141" x="355.5" y="445.9659">PropertyPrefixSearch</text><!--MD5=[e4ef42d6a249a43441249b828b1f8ee9]
entity ItemPrefixSearchEngine--><rect fill="#FEFECE" filter="url(#fkevrcchwhhle)" height="39.0679" style="stroke: #A80036; stroke-width: 1.5;" width="182" x="88" y="539"/><rect fill="#FEFECE" height="5" style="stroke: #A80036; stroke-width: 1.5;" width="10" x="83" y="544"/><rect fill="#FEFECE" height="5" style="stroke: #A80036; stroke-width: 1.5;" width="10" x="83" y="568.0679"/><text fill="#000000" font-family="sans-serif" font-size="14" lengthAdjust="spacingAndGlyphs" textLength="162" x="98" y="563.9659">ItemPrefixSearchEngine</text><!--MD5=[46f772ba511ee5a59c261ce188377755]
entity PropertyPrefixSearchEngine--><rect fill="#FEFECE" filter="url(#fkevrcchwhhle)" height="39.0679" style="stroke: #A80036; stroke-width: 1.5;" width="208" x="305" y="539"/><rect fill="#FEFECE" height="5" style="stroke: #A80036; stroke-width: 1.5;" width="10" x="300" y="544"/><rect fill="#FEFECE" height="5" style="stroke: #A80036; stroke-width: 1.5;" width="10" x="300" y="568.0679"/><text fill="#000000" font-family="sans-serif" font-size="14" lengthAdjust="spacingAndGlyphs" textLength="188" x="315" y="563.9659">PropertyPrefixSearchEngine</text><!--MD5=[ce3501f42908e21e562c8b3f4b073c86]
entity EntitySearchElastic--><rect fill="#FEFECE" filter="url(#fkevrcchwhhle)" height="39.0679" style="stroke: #A80036; stroke-width: 1.5;" width="147" x="243.5" y="703"/><rect fill="#FEFECE" height="5" style="stroke: #A80036; stroke-width: 1.5;" width="10" x="238.5" y="708"/><rect fill="#FEFECE" height="5" style="stroke: #A80036; stroke-width: 1.5;" width="10" x="238.5" y="732.0679"/><text fill="#000000" font-family="sans-serif" font-size="14" lengthAdjust="spacingAndGlyphs" textLength="127" x="253.5" y="727.9659">EntitySearchElastic</text><!--MD5=[0ba5ee7700168656dc1b457c6fe9fdac]
entity Client--><ellipse cx="834" cy="17.5" fill="#FEFECE" filter="url(#fkevrcchwhhle)" rx="8" ry="8" style="stroke: #A80036; stroke-width: 1.5;"/><path d="M834,25.5 L834,52.5 M821,33.5 L847,33.5 M834,52.5 L821,67.5 M834,52.5 L847,67.5 " fill="none" filter="url(#fkevrcchwhhle)" style="stroke: #A80036; stroke-width: 1.5;"/><text fill="#000000" font-family="sans-serif" font-size="14" lengthAdjust="spacingAndGlyphs" textLength="39" x="814.5" y="87.9659">Client</text><!--MD5=[d45feb20809907f7db10242888ce9784]
link QuerySearchEntities to TypeDispatchingEntitySearchHelper--><path d="M1405.29,334.06 C1379.24,356.34 1335.6,393.67 1307.83,417.41 " fill="none" id="QuerySearchEntities-&gt;TypeDispatchingEntitySearchHelper" style="stroke: #A80036; stroke-width: 1.0;"/><polygon fill="#A80036" points="1303.86,420.81,1313.3026,418.0104,1307.6633,417.5643,1308.1094,411.9251,1303.86,420.81" style="stroke: #A80036; stroke-width: 1.0;"/><!--MD5=[19f3836ee9002a2812cd8d1dd16baab5]
link SearchEntities to TypeDispatchingEntitySearchHelper--><path d="M1157.86,334.06 C1184.09,356.34 1228.03,393.67 1255.99,417.41 " fill="none" id="SearchEntities-&gt;TypeDispatchingEntitySearchHelper" style="stroke: #A80036; stroke-width: 1.0;"/><polygon fill="#A80036" points="1259.99,420.81,1255.7048,411.9423,1256.1736,417.5796,1250.5362,418.0485,1259.99,420.81" style="stroke: #A80036; stroke-width: 1.0;"/><!--MD5=[d77c19931f8641b2071f40fff283bfb1]
link TypeDispatchingEntitySearchHelper to CombinedEntitySearchHelper--><path d="M1178.59,460.03 C1097.25,476.95 993.53,504.54 968,539 C933.07,586.15 948.15,660.58 959.17,698.15 " fill="none" id="TypeDispatchingEntitySearchHelper-&gt;CombinedEntitySearchHelper" style="stroke: #A80036; stroke-width: 1.0;"/><polygon fill="#A80036" points="960.62,702.99,961.8518,693.2185,959.1767,698.2028,954.1923,695.5277,960.62,702.99" style="stroke: #A80036; stroke-width: 1.0;"/><text fill="#000000" font-family="sans-serif" font-size="13" lengthAdjust="spacingAndGlyphs" textLength="27" x="969" y="563.897">item</text><!--MD5=[e51e4af16ca72281874c3d0c4f0941ca]
link TypeDispatchingEntitySearchHelper to PropertyDataTypeSearchHelper--><path d="M1234.15,460.09 C1217.34,467.89 1198.94,477.98 1184,490 C1168.43,502.54 1154.44,520.3 1144.6,534.46 " fill="none" id="TypeDispatchingEntitySearchHelper-&gt;PropertyDataTypeSearchHelper" style="stroke: #A80036; stroke-width: 1.0;"/><polygon fill="#A80036" points="1141.69,538.73,1150.0644,533.5464,1144.5062,534.5986,1143.4541,529.0404,1141.69,538.73" style="stroke: #A80036; stroke-width: 1.0;"/><text fill="#000000" font-family="sans-serif" font-size="13" lengthAdjust="spacingAndGlyphs" textLength="53" x="1185" y="504.897">property</text><!--MD5=[cb7efe33e43854941accde699f8a926f]
link PropertyDataTypeSearchHelper to CombinedEntitySearchHelper--><path d="M1111.3,578.08 C1081.17,608.03 1021.97,666.87 989.55,699.09 " fill="none" id="PropertyDataTypeSearchHelper-&gt;CombinedEntitySearchHelper" style="stroke: #A80036; stroke-width: 1.0;"/><polygon fill="#A80036" points="985.73,702.88,994.9295,699.363,989.2727,699.3516,989.2841,693.6948,985.73,702.88" style="stroke: #A80036; stroke-width: 1.0;"/><!--MD5=[3ce5357cbff0b8c08843a65a9e6d38a0]
link TypeDispatchingEntitySearchHelper to LexemeSearchHelper--><path d="M1285.35,460.04 C1290.11,492.39 1295.01,559.72 1263,602 C1261.8,603.58 1260.5,605.06 1259.1,606.46 " fill="none" id="TypeDispatchingEntitySearchHelper-&gt;LexemeSearchHelper" style="stroke: #A80036; stroke-width: 1.0;"/><polygon fill="#A80036" points="1255.2,609.96,1264.5713,606.9304,1258.9228,606.6223,1259.2309,600.9738,1255.2,609.96" style="stroke: #A80036; stroke-width: 1.0;"/><text fill="#000000" font-family="sans-serif" font-size="13" lengthAdjust="spacingAndGlyphs" textLength="43" x="1289" y="504.897">lexeme</text><!--MD5=[91b65939aa3a782c86a58306c5f8bea8]
link TypeDispatchingEntitySearchHelper to EntitySchemaSearchHelper--><path d="M1308.99,460.08 C1319.23,468.26 1330.28,478.61 1338,490 C1362.32,525.9 1375.53,575.37 1381.64,604.44 " fill="none" id="TypeDispatchingEntitySearchHelper-&gt;EntitySchemaSearchHelper" style="stroke: #A80036; stroke-width: 1.0;"/><polygon fill="#A80036" points="1382.71,609.62,1384.8027,599.996,1381.6965,604.7238,1376.9687,601.6176,1382.71,609.62" style="stroke: #A80036; stroke-width: 1.0;"/><text fill="#000000" font-family="sans-serif" font-size="13" lengthAdjust="spacingAndGlyphs" textLength="81" x="1349" y="504.897">entityschema</text><!--MD5=[7890974e2f3b26930aaa106d53e8e8f1]
link CombinedEntitySearchHelper to EntitySearchHelper--><path d="M1010.09,742.07 C1045.87,757.5 1097.21,779.63 1137.34,796.92 " fill="none" id="CombinedEntitySearchHelper-&gt;EntitySearchHelper" style="stroke: #A80036; stroke-width: 1.0; stroke-dasharray: 7.0,7.0;"/><polygon fill="none" points="1140.15,790.51,1155.74,804.86,1134.61,803.37,1140.15,790.51" style="stroke: #A80036; stroke-width: 1.0;"/><!--MD5=[995a7290240920c1b0dbc4590817a7da]
link TypeDispatchingEntitySearchHelper to EntitySearchHelper--><path d="M1387.69,460.05 C1406.38,467.06 1424.48,476.71 1439,490 C1493.54,539.94 1522.59,583.64 1488,649 C1447.05,726.37 1355.51,772.86 1286.35,798.16 " fill="none" id="TypeDispatchingEntitySearchHelper-&gt;EntitySearchHelper" style="stroke: #A80036; stroke-width: 1.0; stroke-dasharray: 7.0,7.0;"/><polygon fill="none" points="1288.24,804.92,1267.05,804.9,1283.63,791.7,1288.24,804.92" style="stroke: #A80036; stroke-width: 1.0;"/><!--MD5=[7395f2b9ad83e5b2a952082203e05434]
link PropertyDataTypeSearchHelper to EntitySearchHelper--><path d="M1123.37,578.16 C1117.81,596.37 1111.59,624.79 1117,649 C1128.33,699.76 1156.11,753.18 1176.2,787.34 " fill="none" id="PropertyDataTypeSearchHelper-&gt;EntitySearchHelper" style="stroke: #A80036; stroke-width: 1.0; stroke-dasharray: 7.0,7.0;"/><polygon fill="none" points="1182.3,783.89,1186.69,804.62,1170.33,791.16,1182.3,783.89" style="stroke: #A80036; stroke-width: 1.0;"/><!--MD5=[def64f2efab666379d619fa3df323c90]
link LexemeSearchHelper to EntitySearchHelper--><path d="M1199,649.01 C1199,680.12 1199,743.56 1199,784.77 " fill="none" id="LexemeSearchHelper-&gt;EntitySearchHelper" style="stroke: #A80036; stroke-width: 1.0; stroke-dasharray: 7.0,7.0;"/><polygon fill="none" points="1206,784.77,1199,804.77,1192,784.77,1206,784.77" style="stroke: #A80036; stroke-width: 1.0;"/><!--MD5=[8faa3692e7561b13bb421714c1b60614]
link EntitySchemaSearchHelper to EntitySearchHelper--><path d="M1368.07,649.01 C1336.53,681.56 1270.71,749.49 1231.14,790.33 " fill="none" id="EntitySchemaSearchHelper-&gt;EntitySearchHelper" style="stroke: #A80036; stroke-width: 1.0; stroke-dasharray: 7.0,7.0;"/><polygon fill="none" points="1236.1,795.27,1217.15,804.77,1226.04,785.53,1236.1,795.27" style="stroke: #A80036; stroke-width: 1.0;"/><!--MD5=[e9441933a331568edbb1bbf71b3aaa1b]
link Client to SuggestItemsRoute--><path d="M814.41,53.71 C749.33,63.01 534.75,95.98 364,149 C325.64,160.91 283.68,178.83 253.26,192.76 " fill="none" id="Client-&gt;SuggestItemsRoute" style="stroke: #A80036; stroke-width: 1.0;"/><polygon fill="#A80036" points="248.48,194.96,258.3281,194.84,253.024,192.8738,254.9902,187.5696,248.48,194.96" style="stroke: #A80036; stroke-width: 1.0;"/><text fill="#000000" font-family="sans-serif" font-size="13" lengthAdjust="spacingAndGlyphs" textLength="27" x="453" y="136.897">item</text><!--MD5=[e8af9890de9f1590d1737c25c0dc601d]
link Client to SuggestPropertiesRoute--><path d="M814.33,58.65 C773.28,74.71 675.61,113.39 595,149 C563.37,162.98 528.09,179.74 501.4,192.67 " fill="none" id="Client-&gt;SuggestPropertiesRoute" style="stroke: #A80036; stroke-width: 1.0;"/><polygon fill="#A80036" points="496.85,194.88,506.694,194.5712,501.3531,192.7071,503.2173,187.3662,496.85,194.88" style="stroke: #A80036; stroke-width: 1.0;"/><text fill="#000000" font-family="sans-serif" font-size="13" lengthAdjust="spacingAndGlyphs" textLength="53" x="654" y="136.897">property</text><!--MD5=[fdb54b7197ab5794914b7334ecc6d906]
link Client to QuerySearchEntitiesRoute--><path d="M853.78,51.31 C938.84,53.15 1281.18,65.64 1546,149 C1578.88,159.35 1613.56,177.72 1638.19,192.22 " fill="none" id="Client-&gt;QuerySearchEntitiesRoute" style="stroke: #A80036; stroke-width: 1.0;"/><polygon fill="#A80036" points="1642.67,194.88,1636.9593,186.8558,1638.3662,192.3349,1632.8871,193.7419,1642.67,194.88" style="stroke: #A80036; stroke-width: 1.0;"/><!--MD5=[c7d59023d9400640562becb7681c2fa2]
link SuggestItemsRoute to ItemPrefixSearchRouteHandler--><path d="M198.82,234.4 C189.37,250.36 175.8,273.28 165.7,290.35 " fill="none" id="SuggestItemsRoute-&gt;ItemPrefixSearchRouteHandler" style="stroke: #A80036; stroke-width: 1.0;"/><polygon fill="#A80036" points="162.95,294.99,170.9742,289.2793,165.4951,290.6862,164.0881,285.2071,162.95,294.99" style="stroke: #A80036; stroke-width: 1.0;"/><!--MD5=[a25334383cc2c30c38045da9b68c0716]
link SuggestPropertiesRoute to PropertyPrefixSearchRouteHandler--><path d="M453.02,234.4 C448.02,250.22 440.85,272.89 435.46,289.91 " fill="none" id="SuggestPropertiesRoute-&gt;PropertyPrefixSearchRouteHandler" style="stroke: #A80036; stroke-width: 1.0;"/><polygon fill="#A80036" points="433.85,294.99,440.3851,287.6216,435.3625,290.2242,432.7599,285.2017,433.85,294.99" style="stroke: #A80036; stroke-width: 1.0;"/><!--MD5=[ab9b9445bd9def659fc54ac1a5d835bc]
link QuerySearchEntitiesRoute to QuerySearchEntities--><path d="M1625.63,234.05 C1583.6,250.86 1521.76,275.59 1478.28,292.99 " fill="none" id="QuerySearchEntitiesRoute-&gt;QuerySearchEntities" style="stroke: #A80036; stroke-width: 1.0;"/><polygon fill="#A80036" points="1473.6,294.86,1483.4419,295.2314,1478.2424,293.003,1480.4707,287.8036,1473.6,294.86" style="stroke: #A80036; stroke-width: 1.0;"/><!--MD5=[160130b6110a5a075b8f172f84fed1d4]
link ItemPrefixSearchRouteHandler to ItemPrefixSearch--><path d="M153.95,334.06 C156.22,355.8 160,391.84 162.5,415.63 " fill="none" id="ItemPrefixSearchRouteHandler-&gt;ItemPrefixSearch" style="stroke: #A80036; stroke-width: 1.0;"/><polygon fill="#A80036" points="163.04,420.81,166.066,411.4375,162.5114,415.838,158.1109,412.2833,163.04,420.81" style="stroke: #A80036; stroke-width: 1.0;"/><!--MD5=[5d6c1cd60dcb5aad0aa18419b2bb3920]
link ItemPrefixSearch to ItemPrefixSearchEngine--><path d="M167.25,460.14 C169.67,480.18 173.52,512.09 176.15,533.88 " fill="none" id="ItemPrefixSearch-&gt;ItemPrefixSearchEngine" style="stroke: #A80036; stroke-width: 1.0;"/><polygon fill="#A80036" points="176.76,538.91,179.6763,529.5028,176.1733,533.9445,171.7316,530.4415,176.76,538.91" style="stroke: #A80036; stroke-width: 1.0;"/><!--MD5=[c7d9f7600921813442818087d75c73f6]
link ItemPrefixSearchEngine to EntitySearchElastic--><path d="M194.83,578.08 C220.24,607.91 270.05,666.39 297.57,698.7 " fill="none" id="ItemPrefixSearchEngine-&gt;EntitySearchElastic" style="stroke: #A80036; stroke-width: 1.0;"/><polygon fill="#A80036" points="301.14,702.88,298.3404,693.4374,297.8943,699.0767,292.2551,698.6306,301.14,702.88" style="stroke: #A80036; stroke-width: 1.0;"/><!--MD5=[2c8382e45308bfdf451e42f869ae160f]
link PropertyPrefixSearchRouteHandler to PropertyPrefixSearch--><path d="M427.7,334.06 C427.35,355.8 426.77,391.84 426.38,415.63 " fill="none" id="PropertyPrefixSearchRouteHandler-&gt;PropertyPrefixSearch" style="stroke: #A80036; stroke-width: 1.0;"/><polygon fill="#A80036" points="426.3,420.81,430.4537,411.8799,426.3857,415.8107,422.4549,411.7428,426.3,420.81" style="stroke: #A80036; stroke-width: 1.0;"/><!--MD5=[f34031b2aa482fddc8ff75e50531c7c2]
link PropertyPrefixSearch to PropertyPrefixSearchEngine--><path d="M423.27,460.14 C420.33,480.18 415.66,512.09 412.46,533.88 " fill="none" id="PropertyPrefixSearch-&gt;PropertyPrefixSearchEngine" style="stroke: #A80036; stroke-width: 1.0;"/><polygon fill="#A80036" points="411.72,538.91,416.9897,530.5895,412.4491,533.9634,409.0752,529.4229,411.72,538.91" style="stroke: #A80036; stroke-width: 1.0;"/><!--MD5=[8bc95357a319eb6a6b8a09be9fd35f38]
link PropertyPrefixSearchEngine to EntitySearchElastic--><path d="M398.45,578.08 C381.58,607.79 348.57,665.91 330.18,698.3 " fill="none" id="PropertyPrefixSearchEngine-&gt;EntitySearchElastic" style="stroke: #A80036; stroke-width: 1.0;"/><polygon fill="#A80036" points="327.57,702.88,335.4979,697.0363,330.043,698.5344,328.5449,693.0795,327.57,702.88" style="stroke: #A80036; stroke-width: 1.0;"/><!--MD5=[ffb8f94a4a93919d37d1b8f804d0f87a]
link Client to ItemWbSearchEntitiesRoute--><path d="M814.47,86.66 C797.25,118.1 772.65,163.01 757.82,190.1 " fill="none" id="Client-&gt;ItemWbSearchEntitiesRoute" style="stroke: #A80036; stroke-width: 1.0;"/><polygon fill="#A80036" points="755.34,194.61,763.1694,188.6351,757.7403,190.2238,756.1515,184.7946,755.34,194.61" style="stroke: #A80036; stroke-width: 1.0;"/><!--MD5=[946e170e9d2e68fd928a7ab5e0cdd549]
link Client to PropertyWbSearchEntitiesRoute--><path d="M853.75,65.14 C893.54,93.62 983.57,158.07 1030.79,191.88 " fill="none" id="Client-&gt;PropertyWbSearchEntitiesRoute" style="stroke: #A80036; stroke-width: 1.0;"/><polygon fill="#A80036" points="1034.95,194.85,1029.9542,186.3623,1030.8823,191.9425,1025.3021,192.8706,1034.95,194.85" style="stroke: #A80036; stroke-width: 1.0;"/><!--MD5=[3e958500cca6ca23bf52fbe9eb3fb24c]
link Client to LexemeWbSearchEntitiesRoute--><path d="M853.85,54.95 C911.87,66.7 1085.89,103.49 1226,149 C1264.94,161.65 1307.91,179.18 1339.5,192.77 " fill="none" id="Client-&gt;LexemeWbSearchEntitiesRoute" style="stroke: #A80036; stroke-width: 1.0;"/><polygon fill="#A80036" points="1344.48,194.92,1337.8105,187.6731,1339.8917,192.9332,1334.6316,195.0143,1344.48,194.92" style="stroke: #A80036; stroke-width: 1.0;"/><!--MD5=[25f6fc0b20cfb20ab962d4040dbc8d98]
link ItemWbSearchEntitiesRoute to SearchEntities--><path d="M819,234.05 C892.41,252.45 1003.67,280.33 1072.98,297.7 " fill="none" id="ItemWbSearchEntitiesRoute-&gt;SearchEntities" style="stroke: #A80036; stroke-width: 1.0;"/><polygon fill="#A80036" points="1077.89,298.94,1070.1289,292.8766,1073.0393,297.7273,1068.1886,300.6377,1077.89,298.94" style="stroke: #A80036; stroke-width: 1.0;"/><!--MD5=[4a3e7ae44c4cdbf242a332eeb0992723]
link PropertyWbSearchEntitiesRoute to SearchEntities--><path d="M1075.46,234.4 C1087.78,250.5 1105.52,273.68 1118.62,290.78 " fill="none" id="PropertyWbSearchEntitiesRoute-&gt;SearchEntities" style="stroke: #A80036; stroke-width: 1.0;"/><polygon fill="#A80036" points="1121.84,294.99,1119.5414,285.4131,1118.799,291.021,1113.1911,290.2787,1121.84,294.99" style="stroke: #A80036; stroke-width: 1.0;"/><!--MD5=[41c8d744c052f003c9a7c8430723782d]
link LexemeWbSearchEntitiesRoute to SearchEntities--><path d="M1338.68,234.05 C1295.8,250.86 1232.7,275.59 1188.32,292.99 " fill="none" id="LexemeWbSearchEntitiesRoute-&gt;SearchEntities" style="stroke: #A80036; stroke-width: 1.0;"/><polygon fill="#A80036" points="1183.55,294.86,1193.3893,295.294,1188.2041,293.0326,1190.4655,287.8474,1183.55,294.86" style="stroke: #A80036; stroke-width: 1.0;"/><!--MD5=[a0953195d065a04dab4eb75ff3c36652]
@startuml

skinparam componentStyle rectangle

actor Client

package "REST API" {

    [ /suggest/items ] as SuggestItemsRoute
    [ /suggest/properties ] as SuggestPropertiesRoute

    [ItemPrefixSearchRouteHandler]
    [PropertyPrefixSearchRouteHandler]
}

package "Action API" {

    [ ?action=wbsearchentities&type=item ] as ItemWbSearchEntitiesRoute
    [ ?action=wbsearchentities&type=property ] as PropertyWbSearchEntitiesRoute
    [ ?action=wbsearchentities&type=lexeme ] as LexemeWbSearchEntitiesRoute
    [ ?action=query&list=wbsearch ] as QuerySearchEntitiesRoute

    [SearchEntities]
    [QuerySearchEntities]

    [TypeDispatchingEntitySearchHelper]
    [CombinedEntitySearchHelper]

    [PropertyDataTypeSearchHelper]

    [LexemeSearchHelper]
    [EntitySchemaSearchHelper]

    [EntitySearchHelper]

[QuerySearchEntities] - -> [TypeDispatchingEntitySearchHelper]

SearchEntities - -> [TypeDispatchingEntitySearchHelper]

[TypeDispatchingEntitySearchHelper] - -> [CombinedEntitySearchHelper] : item
[TypeDispatchingEntitySearchHelper] - -> [PropertyDataTypeSearchHelper] : property
[PropertyDataTypeSearchHelper] - -> [CombinedEntitySearchHelper]
[TypeDispatchingEntitySearchHelper] - -> [LexemeSearchHelper] : lexeme
[TypeDispatchingEntitySearchHelper] - -> [EntitySchemaSearchHelper] : entityschema

    CombinedEntitySearchHelper ..|> [EntitySearchHelper]
    TypeDispatchingEntitySearchHelper ..|> [EntitySearchHelper]
    PropertyDataTypeSearchHelper ..|> EntitySearchHelper
    LexemeSearchHelper ..|> EntitySearchHelper
    EntitySchemaSearchHelper ..|> EntitySearchHelper
}

package "Use Cases" {

    [ItemPrefixSearch]
    [PropertyPrefixSearch]

    [ItemPrefixSearchEngine]
    [PropertyPrefixSearchEngine]
}

package "CirrusSearch" {
    [EntitySearchElastic]

}

Client - -> SuggestItemsRoute : item
Client - -> SuggestPropertiesRoute : property
Client - -> QuerySearchEntitiesRoute

SuggestItemsRoute - -> [ItemPrefixSearchRouteHandler]
SuggestPropertiesRoute - -> [PropertyPrefixSearchRouteHandler]

QuerySearchEntitiesRoute - -> [QuerySearchEntities]

[ItemPrefixSearchRouteHandler] - -> [ItemPrefixSearch]
[ItemPrefixSearch] - -> [ItemPrefixSearchEngine]
[ItemPrefixSearchEngine] - -> [EntitySearchElastic]

[PropertyPrefixSearchRouteHandler] - -> [PropertyPrefixSearch]
[PropertyPrefixSearch] - -> [PropertyPrefixSearchEngine]
[PropertyPrefixSearchEngine] - -> [EntitySearchElastic]

[ItemPrefixSearchEngine]


Client - -> ItemWbSearchEntitiesRoute
Client - -> PropertyWbSearchEntitiesRoute
Client - -> LexemeWbSearchEntitiesRoute

ItemWbSearchEntitiesRoute - -> [SearchEntities]
PropertyWbSearchEntitiesRoute - -> [SearchEntities]
LexemeWbSearchEntitiesRoute - -> [SearchEntities]




@enduml

PlantUML version 1.2020.02(Sun Mar 01 11:22:07 CET 2020)
(GPL source distribution)
Java Runtime: OpenJDK Runtime Environment
JVM: OpenJDK 64-Bit Server VM
Java Version: 21.0.10+7-Ubuntu-124.04
Operating System: Linux
Default Encoding: UTF-8
Language: de
Country: DE
--></g></svg>