<?xml version="1.0" encoding="UTF-8" standalone="no"?><svg xmlns="http://www.w3.org/2000/svg" xmlns:xlink="http://www.w3.org/1999/xlink" contentScriptType="application/ecmascript" contentStyleType="text/css" height="916px" preserveAspectRatio="none" style="width:1902px;height:916px;" version="1.1" viewBox="0 0 1902 916" width="1902px" zoomAndPan="magnify"><defs><filter height="300%" id="f6r97sruc4y5o" width="300%" x="-1" y="-1"><feGaussianBlur result="blurOut" stdDeviation="2.0"/><feColorMatrix in="blurOut" result="blurOut2" type="matrix" values="0 0 0 0 0 0 0 0 0 0 0 0 0 0 0 0 0 0 .4 0"/><feOffset dx="4.0" dy="4.0" in="blurOut2" result="blurOut3"/><feBlend in="SourceGraphic" in2="blurOut3" mode="normal"/></filter></defs><g><!--MD5=[045599ce58c7e5c7d48c5f534dab8ee6]
cluster REST API--><polygon fill="#FFFFFF" filter="url(#f6r97sruc4y5o)" points="22,139,89,139,96,164.0679,571,164.0679,571,332,22,332,22,139" style="stroke: #000000; stroke-width: 1.5;"/><line style="stroke: #000000; stroke-width: 1.5;" x1="22" x2="96" y1="164.0679" y2="164.0679"/><text fill="#000000" font-family="sans-serif" font-size="14" font-weight="bold" lengthAdjust="spacingAndGlyphs" textLength="61" x="26" y="155.9659">REST API</text><!--MD5=[7b76cfe7b864997a6d9c59335f3fe863]
cluster Action API--><polygon fill="#FFFFFF" filter="url(#f6r97sruc4y5o)" points="595,139,674,139,681,164.0679,1880,164.0679,1880,552,595,552,595,139" style="stroke: #000000; stroke-width: 1.5;"/><line style="stroke: #000000; stroke-width: 1.5;" x1="595" x2="681" y1="164.0679" y2="164.0679"/><text fill="#000000" font-family="sans-serif" font-size="14" font-weight="bold" lengthAdjust="spacingAndGlyphs" textLength="73" x="599" y="155.9659">Action API</text><!--MD5=[c6348f98a6dbaaa41a93f16d8bef2fde]
cluster Use Cases--><polygon fill="#FFFFFF" filter="url(#f6r97sruc4y5o)" points="263,585,338,585,345,610.0679,720,610.0679,720,778,263,778,263,585" style="stroke: #000000; stroke-width: 1.5;"/><line style="stroke: #000000; stroke-width: 1.5;" x1="263" x2="345" y1="610.0679" y2="610.0679"/><text fill="#000000" font-family="sans-serif" font-size="14" font-weight="bold" lengthAdjust="spacingAndGlyphs" textLength="69" x="267" y="601.9659">Use Cases</text><!--MD5=[8c61485776175d6a928fbf99c617359e]
cluster CirrusSearch--><polygon fill="#FFFFFF" filter="url(#f6r97sruc4y5o)" points="418,811,511,811,518,836.0679,598,836.0679,598,904,418,904,418,811" style="stroke: #000000; stroke-width: 1.5;"/><line style="stroke: #000000; stroke-width: 1.5;" x1="418" x2="518" y1="836.0679" y2="836.0679"/><text fill="#000000" font-family="sans-serif" font-size="14" font-weight="bold" lengthAdjust="spacingAndGlyphs" textLength="87" x="422" y="827.9659">CirrusSearch</text><!--MD5=[bfd12dd9a773e09cb86c366edf738c88]
cluster Legacy Search--><polygon fill="#FFFFFF" filter="url(#f6r97sruc4y5o)" points="1317,585,1421,585,1428,610.0679,1748,610.0679,1748,778,1317,778,1317,585" style="stroke: #000000; stroke-width: 1.5;"/><line style="stroke: #000000; stroke-width: 1.5;" x1="1317" x2="1428" y1="610.0679" y2="610.0679"/><text fill="#000000" font-family="sans-serif" font-size="14" font-weight="bold" lengthAdjust="spacingAndGlyphs" textLength="98" x="1321" y="601.9659">Legacy Search</text><!--MD5=[ddf6663a3210c91d2e98a7905938afe3]
entity SuggestItemsRoute--><rect fill="#FEFECE" filter="url(#f6r97sruc4y5o)" height="39.0679" style="stroke: #A80036; stroke-width: 1.5;" width="121" x="149.5" y="177"/><rect fill="#FEFECE" height="5" style="stroke: #A80036; stroke-width: 1.5;" width="10" x="144.5" y="182"/><rect fill="#FEFECE" height="5" style="stroke: #A80036; stroke-width: 1.5;" width="10" x="144.5" y="206.0679"/><text fill="#000000" font-family="sans-serif" font-size="14" lengthAdjust="spacingAndGlyphs" textLength="101" x="159.5" y="201.9659">/suggest/items</text><!--MD5=[97e8176b2b9f3b546898aa6cb6cb97e4]
entity SuggestPropertiesRoute--><rect fill="#FEFECE" filter="url(#f6r97sruc4y5o)" height="39.0679" style="stroke: #A80036; stroke-width: 1.5;" width="154" x="382" y="177"/><rect fill="#FEFECE" height="5" style="stroke: #A80036; stroke-width: 1.5;" width="10" x="377" y="182"/><rect fill="#FEFECE" height="5" style="stroke: #A80036; stroke-width: 1.5;" width="10" x="377" y="206.0679"/><text fill="#000000" font-family="sans-serif" font-size="14" lengthAdjust="spacingAndGlyphs" textLength="134" x="392" y="201.9659">/suggest/properties</text><!--MD5=[d0b1b5130309536b58db4edd0bfe8156]
entity ItemPrefixSearchRouteHandler--><rect fill="#FEFECE" filter="url(#f6r97sruc4y5o)" height="39.0679" style="stroke: #A80036; stroke-width: 1.5;" width="228" x="38" y="277"/><rect fill="#FEFECE" height="5" style="stroke: #A80036; stroke-width: 1.5;" width="10" x="33" y="282"/><rect fill="#FEFECE" height="5" style="stroke: #A80036; stroke-width: 1.5;" width="10" x="33" y="306.0679"/><text fill="#000000" font-family="sans-serif" font-size="14" lengthAdjust="spacingAndGlyphs" textLength="208" x="48" y="301.9659">ItemPrefixSearchRouteHandler</text><!--MD5=[dd041635ee050562977c4f300994609c]
entity PropertyPrefixSearchRouteHandler--><rect fill="#FEFECE" filter="url(#f6r97sruc4y5o)" height="39.0679" style="stroke: #A80036; stroke-width: 1.5;" width="254" x="301" y="277"/><rect fill="#FEFECE" height="5" style="stroke: #A80036; stroke-width: 1.5;" width="10" x="296" y="282"/><rect fill="#FEFECE" height="5" style="stroke: #A80036; stroke-width: 1.5;" width="10" x="296" y="306.0679"/><text fill="#000000" font-family="sans-serif" font-size="14" lengthAdjust="spacingAndGlyphs" textLength="234" x="311" y="301.9659">PropertyPrefixSearchRouteHandler</text><!--MD5=[474eeb70e749e87b7d811d6b0d9a23d1]
entity ItemWbSearchEntitiesRoute--><rect fill="#FEFECE" filter="url(#f6r97sruc4y5o)" height="39.0679" style="stroke: #A80036; stroke-width: 1.5;" width="267" x="611.5" y="177"/><rect fill="#FEFECE" height="5" style="stroke: #A80036; stroke-width: 1.5;" width="10" x="606.5" y="182"/><rect fill="#FEFECE" height="5" style="stroke: #A80036; stroke-width: 1.5;" width="10" x="606.5" y="206.0679"/><text fill="#000000" font-family="sans-serif" font-size="14" lengthAdjust="spacingAndGlyphs" textLength="247" x="621.5" y="201.9659">?action=wbsearchentities&amp;type=item</text><!--MD5=[1fb7f55f5131ddb1c85f6cd6d5b150f4]
entity PropertyWbSearchEntitiesRoute--><rect fill="#FEFECE" filter="url(#f6r97sruc4y5o)" height="39.0679" style="stroke: #A80036; stroke-width: 1.5;" width="295" x="913.5" y="177"/><rect fill="#FEFECE" height="5" style="stroke: #A80036; stroke-width: 1.5;" width="10" x="908.5" y="182"/><rect fill="#FEFECE" height="5" style="stroke: #A80036; stroke-width: 1.5;" width="10" x="908.5" y="206.0679"/><text fill="#000000" font-family="sans-serif" font-size="14" lengthAdjust="spacingAndGlyphs" textLength="275" x="923.5" y="201.9659">?action=wbsearchentities&amp;type=property</text><!--MD5=[8874ebff350a6f28a898b0549ef4e667]
entity LexemeWbSearchEntitiesRoute--><rect fill="#FEFECE" filter="url(#f6r97sruc4y5o)" height="39.0679" style="stroke: #A80036; stroke-width: 1.5;" width="285" x="1243.5" y="177"/><rect fill="#FEFECE" height="5" style="stroke: #A80036; stroke-width: 1.5;" width="10" x="1238.5" y="182"/><rect fill="#FEFECE" height="5" style="stroke: #A80036; stroke-width: 1.5;" width="10" x="1238.5" y="206.0679"/><text fill="#000000" font-family="sans-serif" font-size="14" lengthAdjust="spacingAndGlyphs" textLength="265" x="1253.5" y="201.9659">?action=wbsearchentities&amp;type=lexeme</text><!--MD5=[b4748774af247d503dca27bb0888eefb]
entity QuerySearchEntitiesRoute--><rect fill="#FEFECE" filter="url(#f6r97sruc4y5o)" height="39.0679" style="stroke: #A80036; stroke-width: 1.5;" width="217" x="1563.5" y="177"/><rect fill="#FEFECE" height="5" style="stroke: #A80036; stroke-width: 1.5;" width="10" x="1558.5" y="182"/><rect fill="#FEFECE" height="5" style="stroke: #A80036; stroke-width: 1.5;" width="10" x="1558.5" y="206.0679"/><text fill="#000000" font-family="sans-serif" font-size="14" lengthAdjust="spacingAndGlyphs" textLength="197" x="1573.5" y="201.9659">?action=query&amp;list=wbsearch</text><!--MD5=[5a3e42f436fed1b539e80bcff7de0c58]
entity SearchEntities--><rect fill="#FEFECE" filter="url(#f6r97sruc4y5o)" height="39.0679" style="stroke: #A80036; stroke-width: 1.5;" width="116" x="1067" y="277"/><rect fill="#FEFECE" height="5" style="stroke: #A80036; stroke-width: 1.5;" width="10" x="1062" y="282"/><rect fill="#FEFECE" height="5" style="stroke: #A80036; stroke-width: 1.5;" width="10" x="1062" y="306.0679"/><text fill="#000000" font-family="sans-serif" font-size="14" lengthAdjust="spacingAndGlyphs" textLength="96" x="1077" y="301.9659">SearchEntities</text><!--MD5=[006d44b5263c44e881ddbe2be8b775db]
entity QuerySearchEntities--><rect fill="#FEFECE" filter="url(#f6r97sruc4y5o)" height="39.0679" style="stroke: #A80036; stroke-width: 1.5;" width="157" x="1337.5" y="277"/><rect fill="#FEFECE" height="5" style="stroke: #A80036; stroke-width: 1.5;" width="10" x="1332.5" y="282"/><rect fill="#FEFECE" height="5" style="stroke: #A80036; stroke-width: 1.5;" width="10" x="1332.5" y="306.0679"/><text fill="#000000" font-family="sans-serif" font-size="14" lengthAdjust="spacingAndGlyphs" textLength="137" x="1347.5" y="301.9659">QuerySearchEntities</text><!--MD5=[5bd17620e4a804a10e34e52f72e69f87]
entity WbSearchEntitiesControllerDispatcher--><rect fill="#FEFECE" filter="url(#f6r97sruc4y5o)" height="39.0679" style="stroke: #A80036; stroke-width: 1.5;" width="278" x="1089" y="379"/><rect fill="#FEFECE" height="5" style="stroke: #A80036; stroke-width: 1.5;" width="10" x="1084" y="384"/><rect fill="#FEFECE" height="5" style="stroke: #A80036; stroke-width: 1.5;" width="10" x="1084" y="408.0679"/><text fill="#000000" font-family="sans-serif" font-size="14" lengthAdjust="spacingAndGlyphs" textLength="258" x="1099" y="403.9659">WbSearchEntitiesControllerDispatcher</text><!--MD5=[a9ce3db0d0f3401ac539f0f6f515361d]
entity ItemWbSearchEntitiesController--><rect fill="#FEFECE" filter="url(#f6r97sruc4y5o)" height="39.0679" style="stroke: #A80036; stroke-width: 1.5;" width="236" x="611" y="497"/><rect fill="#FEFECE" height="5" style="stroke: #A80036; stroke-width: 1.5;" width="10" x="606" y="502"/><rect fill="#FEFECE" height="5" style="stroke: #A80036; stroke-width: 1.5;" width="10" x="606" y="526.0679"/><text fill="#000000" font-family="sans-serif" font-size="14" lengthAdjust="spacingAndGlyphs" textLength="216" x="621" y="521.9659">ItemWbSearchEntitiesController</text><!--MD5=[b16f776d3b09c5bacd71c5760d6c0f90]
entity PropertyWbSearchEntitiesController--><rect fill="#FEFECE" filter="url(#f6r97sruc4y5o)" height="39.0679" style="stroke: #A80036; stroke-width: 1.5;" width="262" x="882" y="497"/><rect fill="#FEFECE" height="5" style="stroke: #A80036; stroke-width: 1.5;" width="10" x="877" y="502"/><rect fill="#FEFECE" height="5" style="stroke: #A80036; stroke-width: 1.5;" width="10" x="877" y="526.0679"/><text fill="#000000" font-family="sans-serif" font-size="14" lengthAdjust="spacingAndGlyphs" textLength="242" x="892" y="521.9659">PropertyWbSearchEntitiesController</text><!--MD5=[79e4931af4c214ac70a62fe72d037d2b]
entity EntitySchemaWbSearchEntitiesController--><rect fill="#FEFECE" filter="url(#f6r97sruc4y5o)" height="39.0679" style="stroke: #A80036; stroke-width: 1.5;" width="296" x="1179" y="497"/><rect fill="#FEFECE" height="5" style="stroke: #A80036; stroke-width: 1.5;" width="10" x="1174" y="502"/><rect fill="#FEFECE" height="5" style="stroke: #A80036; stroke-width: 1.5;" width="10" x="1174" y="526.0679"/><text fill="#000000" font-family="sans-serif" font-size="14" lengthAdjust="spacingAndGlyphs" textLength="276" x="1189" y="521.9659">EntitySchemaWbSearchEntitiesController</text><!--MD5=[b5232630cc6914086be0be09feec2d8c]
entity FallbackController--><rect fill="#FEFECE" filter="url(#f6r97sruc4y5o)" height="39.0679" style="stroke: #A80036; stroke-width: 1.5;" width="353" x="1510.5" y="497"/><rect fill="#FEFECE" height="5" style="stroke: #A80036; stroke-width: 1.5;" width="10" x="1505.5" y="502"/><rect fill="#FEFECE" height="5" style="stroke: #A80036; stroke-width: 1.5;" width="10" x="1505.5" y="526.0679"/><text fill="#000000" font-family="sans-serif" font-size="14" lengthAdjust="spacingAndGlyphs" textLength="333" x="1520.5" y="521.9659">FallbackEntitySearchHelperController (Lexeme, ...)</text><!--MD5=[7e98c68f6bf1151f514578024ec36813]
entity ItemPrefixSearch--><rect fill="#FEFECE" filter="url(#f6r97sruc4y5o)" height="39.0679" style="stroke: #A80036; stroke-width: 1.5;" width="135" x="302.5" y="623"/><rect fill="#FEFECE" height="5" style="stroke: #A80036; stroke-width: 1.5;" width="10" x="297.5" y="628"/><rect fill="#FEFECE" height="5" style="stroke: #A80036; stroke-width: 1.5;" width="10" x="297.5" y="652.0679"/><text fill="#000000" font-family="sans-serif" font-size="14" lengthAdjust="spacingAndGlyphs" textLength="115" x="312.5" y="647.9659">ItemPrefixSearch</text><!--MD5=[c4b4d4e30dc7f7a2e4a6b1dff19e1c6d]
entity PropertyPrefixSearch--><rect fill="#FEFECE" filter="url(#f6r97sruc4y5o)" height="39.0679" style="stroke: #A80036; stroke-width: 1.5;" width="161" x="519.5" y="623"/><rect fill="#FEFECE" height="5" style="stroke: #A80036; stroke-width: 1.5;" width="10" x="514.5" y="628"/><rect fill="#FEFECE" height="5" style="stroke: #A80036; stroke-width: 1.5;" width="10" x="514.5" y="652.0679"/><text fill="#000000" font-family="sans-serif" font-size="14" lengthAdjust="spacingAndGlyphs" textLength="141" x="529.5" y="647.9659">PropertyPrefixSearch</text><!--MD5=[e4ef42d6a249a43441249b828b1f8ee9]
entity ItemPrefixSearchEngine--><rect fill="#FEFECE" filter="url(#f6r97sruc4y5o)" height="39.0679" style="stroke: #A80036; stroke-width: 1.5;" width="182" x="279" y="723"/><rect fill="#FEFECE" height="5" style="stroke: #A80036; stroke-width: 1.5;" width="10" x="274" y="728"/><rect fill="#FEFECE" height="5" style="stroke: #A80036; stroke-width: 1.5;" width="10" x="274" y="752.0679"/><text fill="#000000" font-family="sans-serif" font-size="14" lengthAdjust="spacingAndGlyphs" textLength="162" x="289" y="747.9659">ItemPrefixSearchEngine</text><!--MD5=[46f772ba511ee5a59c261ce188377755]
entity PropertyPrefixSearchEngine--><rect fill="#FEFECE" filter="url(#f6r97sruc4y5o)" height="39.0679" style="stroke: #A80036; stroke-width: 1.5;" width="208" x="496" y="723"/><rect fill="#FEFECE" height="5" style="stroke: #A80036; stroke-width: 1.5;" width="10" x="491" y="728"/><rect fill="#FEFECE" height="5" style="stroke: #A80036; stroke-width: 1.5;" width="10" x="491" y="752.0679"/><text fill="#000000" font-family="sans-serif" font-size="14" lengthAdjust="spacingAndGlyphs" textLength="188" x="506" y="747.9659">PropertyPrefixSearchEngine</text><!--MD5=[ce3501f42908e21e562c8b3f4b073c86]
entity EntitySearchElastic--><rect fill="#FEFECE" filter="url(#f6r97sruc4y5o)" height="39.0679" style="stroke: #A80036; stroke-width: 1.5;" width="147" x="434.5" y="849"/><rect fill="#FEFECE" height="5" style="stroke: #A80036; stroke-width: 1.5;" width="10" x="429.5" y="854"/><rect fill="#FEFECE" height="5" style="stroke: #A80036; stroke-width: 1.5;" width="10" x="429.5" y="878.0679"/><text fill="#000000" font-family="sans-serif" font-size="14" lengthAdjust="spacingAndGlyphs" textLength="127" x="444.5" y="873.9659">EntitySearchElastic</text><!--MD5=[ce402c300396f83dbfe2ed50081ad46f]
entity EntitySearchHelper--><rect fill="#FEFECE" filter="url(#f6r97sruc4y5o)" height="39.0679" style="stroke: #A80036; stroke-width: 1.5;" width="149" x="1467.5" y="723"/><rect fill="#FEFECE" height="5" style="stroke: #A80036; stroke-width: 1.5;" width="10" x="1462.5" y="728"/><rect fill="#FEFECE" height="5" style="stroke: #A80036; stroke-width: 1.5;" width="10" x="1462.5" y="752.0679"/><text fill="#000000" font-family="sans-serif" font-size="14" lengthAdjust="spacingAndGlyphs" textLength="129" x="1477.5" y="747.9659">EntitySearchHelper</text><!--MD5=[15df543224d79cf589eca3df91ee0673]
entity LexemeSearchHelper--><rect fill="#FEFECE" filter="url(#f6r97sruc4y5o)" height="39.0679" style="stroke: #A80036; stroke-width: 1.5;" width="162" x="1570" y="623"/><rect fill="#FEFECE" height="5" style="stroke: #A80036; stroke-width: 1.5;" width="10" x="1565" y="628"/><rect fill="#FEFECE" height="5" style="stroke: #A80036; stroke-width: 1.5;" width="10" x="1565" y="652.0679"/><text fill="#000000" font-family="sans-serif" font-size="14" lengthAdjust="spacingAndGlyphs" textLength="142" x="1580" y="647.9659">LexemeSearchHelper</text><!--MD5=[ef940cdb007189b3d29de52d968cdf95]
entity EntitySchemaSearchHelper--><rect fill="#FEFECE" filter="url(#f6r97sruc4y5o)" height="39.0679" style="stroke: #A80036; stroke-width: 1.5;" width="202" x="1333" y="623"/><rect fill="#FEFECE" height="5" style="stroke: #A80036; stroke-width: 1.5;" width="10" x="1328" y="628"/><rect fill="#FEFECE" height="5" style="stroke: #A80036; stroke-width: 1.5;" width="10" x="1328" y="652.0679"/><text fill="#000000" font-family="sans-serif" font-size="14" lengthAdjust="spacingAndGlyphs" textLength="182" x="1343" y="647.9659">EntitySchemaSearchHelper</text><!--MD5=[0ba5ee7700168656dc1b457c6fe9fdac]
entity Client--><ellipse cx="834" cy="17.5" fill="#FEFECE" filter="url(#f6r97sruc4y5o)" rx="8" ry="8" style="stroke: #A80036; stroke-width: 1.5;"/><path d="M834,25.5 L834,52.5 M821,33.5 L847,33.5 M834,52.5 L821,67.5 M834,52.5 L847,67.5 " fill="none" filter="url(#f6r97sruc4y5o)" style="stroke: #A80036; stroke-width: 1.5;"/><text fill="#000000" font-family="sans-serif" font-size="14" lengthAdjust="spacingAndGlyphs" textLength="39" x="814.5" y="87.9659">Client</text><!--MD5=[e9441933a331568edbb1bbf71b3aaa1b]
link Client to SuggestItemsRoute--><path d="M814.44,52.74 C749.45,58.87 535.2,81.76 365,131 C325.93,142.3 283.4,160.45 252.79,174.62 " fill="none" id="Client-&gt;SuggestItemsRoute" style="stroke: #A80036; stroke-width: 1.0;"/><polygon fill="#A80036" points="247.99,176.85,257.8372,176.6671,252.5206,174.7348,254.4528,169.4182,247.99,176.85" style="stroke: #A80036; stroke-width: 1.0;"/><!--MD5=[e8af9890de9f1590d1737c25c0dc601d]
link Client to SuggestPropertiesRoute--><path d="M814.19,56.75 C772.89,68.93 674.75,98.87 595,131 C562.35,144.15 526.4,161.32 499.67,174.64 " fill="none" id="Client-&gt;SuggestPropertiesRoute" style="stroke: #A80036; stroke-width: 1.0;"/><polygon fill="#A80036" points="495.13,176.91,504.9693,176.4754,499.605,174.6797,501.4007,169.3154,495.13,176.91" style="stroke: #A80036; stroke-width: 1.0;"/><!--MD5=[fdb54b7197ab5794914b7334ecc6d906]
link Client to QuerySearchEntitiesRoute--><path d="M853.77,50.65 C938.79,49.68 1280.99,51.19 1546,131 C1579.23,141.01 1614.14,159.6 1638.76,174.26 " fill="none" id="Client-&gt;QuerySearchEntitiesRoute" style="stroke: #A80036; stroke-width: 1.0;"/><polygon fill="#A80036" points="1643.24,176.95,1637.5805,168.8896,1638.9525,174.3775,1633.4646,175.7495,1643.24,176.95" style="stroke: #A80036; stroke-width: 1.0;"/><!--MD5=[c7d59023d9400640562becb7681c2fa2]
link SuggestItemsRoute to ItemPrefixSearchRouteHandler--><path d="M198.82,216.4 C189.37,232.36 175.8,255.28 165.7,272.35 " fill="none" id="SuggestItemsRoute-&gt;ItemPrefixSearchRouteHandler" style="stroke: #A80036; stroke-width: 1.0;"/><polygon fill="#A80036" points="162.95,276.99,170.9742,271.2793,165.4951,272.6862,164.0881,267.2071,162.95,276.99" style="stroke: #A80036; stroke-width: 1.0;"/><!--MD5=[a25334383cc2c30c38045da9b68c0716]
link SuggestPropertiesRoute to PropertyPrefixSearchRouteHandler--><path d="M453.02,216.4 C448.02,232.22 440.85,254.89 435.46,271.91 " fill="none" id="SuggestPropertiesRoute-&gt;PropertyPrefixSearchRouteHandler" style="stroke: #A80036; stroke-width: 1.0;"/><polygon fill="#A80036" points="433.85,276.99,440.3851,269.6216,435.3625,272.2242,432.7599,267.2017,433.85,276.99" style="stroke: #A80036; stroke-width: 1.0;"/><!--MD5=[ab9b9445bd9def659fc54ac1a5d835bc]
link QuerySearchEntitiesRoute to QuerySearchEntities--><path d="M1623.55,216.05 C1579.63,232.86 1515.02,257.59 1469.58,274.99 " fill="none" id="QuerySearchEntitiesRoute-&gt;QuerySearchEntities" style="stroke: #A80036; stroke-width: 1.0;"/><polygon fill="#A80036" points="1464.69,276.86,1474.525,277.3827,1469.3604,275.0747,1471.6685,269.9101,1464.69,276.86" style="stroke: #A80036; stroke-width: 1.0;"/><!--MD5=[160130b6110a5a075b8f172f84fed1d4]
link ItemPrefixSearchRouteHandler to ItemPrefixSearch--><path d="M164.03,316.48 C201.34,375.36 315,554.71 355.49,618.6 " fill="none" id="ItemPrefixSearchRouteHandler-&gt;ItemPrefixSearch" style="stroke: #A80036; stroke-width: 1.0;"/><polygon fill="#A80036" points="358.27,622.99,356.8064,613.2505,355.5828,618.7735,350.0599,617.5499,358.27,622.99" style="stroke: #A80036; stroke-width: 1.0;"/><!--MD5=[5d6c1cd60dcb5aad0aa18419b2bb3920]
link ItemPrefixSearch to ItemPrefixSearchEngine--><path d="M370,662.4 C370,678.22 370,700.89 370,717.91 " fill="none" id="ItemPrefixSearch-&gt;ItemPrefixSearchEngine" style="stroke: #A80036; stroke-width: 1.0;"/><polygon fill="#A80036" points="370,722.99,374.0257,714.0015,370.0143,717.99,366.0257,713.9786,370,722.99" style="stroke: #A80036; stroke-width: 1.0;"/><!--MD5=[c7d9f7600921813442818087d75c73f6]
link ItemPrefixSearchEngine to EntitySearchElastic--><path d="M390.66,762.06 C415.46,784.34 456.99,821.67 483.41,845.41 " fill="none" id="ItemPrefixSearchEngine-&gt;EntitySearchElastic" style="stroke: #A80036; stroke-width: 1.0;"/><polygon fill="#A80036" points="487.2,848.81,483.1862,839.8161,483.4835,845.4652,477.8345,845.7625,487.2,848.81" style="stroke: #A80036; stroke-width: 1.0;"/><!--MD5=[2c8382e45308bfdf451e42f869ae160f]
link PropertyPrefixSearchRouteHandler to PropertyPrefixSearch--><path d="M437.49,316.48 C466.87,375.24 556.24,553.99 588.36,618.21 " fill="none" id="PropertyPrefixSearchRouteHandler-&gt;PropertyPrefixSearch" style="stroke: #A80036; stroke-width: 1.0;"/><polygon fill="#A80036" points="590.75,622.99,590.3154,613.1507,588.5197,618.515,583.1554,616.7193,590.75,622.99" style="stroke: #A80036; stroke-width: 1.0;"/><!--MD5=[f34031b2aa482fddc8ff75e50531c7c2]
link PropertyPrefixSearch to PropertyPrefixSearchEngine--><path d="M600,662.4 C600,678.22 600,700.89 600,717.91 " fill="none" id="PropertyPrefixSearch-&gt;PropertyPrefixSearchEngine" style="stroke: #A80036; stroke-width: 1.0;"/><polygon fill="#A80036" points="600,722.99,604.0257,714.0015,600.0143,717.99,596.0257,713.9786,600,722.99" style="stroke: #A80036; stroke-width: 1.0;"/><!--MD5=[8bc95357a319eb6a6b8a09be9fd35f38]
link PropertyPrefixSearchEngine to EntitySearchElastic--><path d="M586.23,762.06 C569.9,784.07 542.69,820.75 525.05,844.53 " fill="none" id="PropertyPrefixSearchEngine-&gt;EntitySearchElastic" style="stroke: #A80036; stroke-width: 1.0;"/><polygon fill="#A80036" points="521.87,848.81,530.4507,843.9757,524.854,844.798,524.0316,839.2013,521.87,848.81" style="stroke: #A80036; stroke-width: 1.0;"/><!--MD5=[ffb8f94a4a93919d37d1b8f804d0f87a]
link Client to ItemWbSearchEntitiesRoute--><path d="M814.47,82.71 C797.8,109.77 774.22,148.05 759.28,172.32 " fill="none" id="Client-&gt;ItemWbSearchEntitiesRoute" style="stroke: #A80036; stroke-width: 1.0;"/><polygon fill="#A80036" points="756.59,176.68,764.7083,171.1039,759.2065,172.4193,757.8911,166.9175,756.59,176.68" style="stroke: #A80036; stroke-width: 1.0;"/><!--MD5=[946e170e9d2e68fd928a7ab5e0cdd549]
link Client to PropertyWbSearchEntitiesRoute--><path d="M853.75,63.57 C892.59,88.3 979.33,143.51 1027.37,174.09 " fill="none" id="Client-&gt;PropertyWbSearchEntitiesRoute" style="stroke: #A80036; stroke-width: 1.0;"/><polygon fill="#A80036" points="1031.61,176.79,1026.1699,168.5799,1027.3935,174.1028,1021.8705,175.3264,1031.61,176.79" style="stroke: #A80036; stroke-width: 1.0;"/><!--MD5=[3e958500cca6ca23bf52fbe9eb3fb24c]
link Client to LexemeWbSearchEntitiesRoute--><path d="M853.89,53.75 C912.02,62.06 1086.32,88.97 1226,131 C1265.91,143.01 1309.71,161.02 1341.37,174.96 " fill="none" id="Client-&gt;LexemeWbSearchEntitiesRoute" style="stroke: #A80036; stroke-width: 1.0;"/><polygon fill="#A80036" points="1345.96,176.99,1339.3369,169.7006,1341.3845,174.9739,1336.1112,177.0215,1345.96,176.99" style="stroke: #A80036; stroke-width: 1.0;"/><!--MD5=[25f6fc0b20cfb20ab962d4040dbc8d98]
link ItemWbSearchEntitiesRoute to SearchEntities--><path d="M816.92,216.05 C887.49,234.25 994.05,261.73 1061.55,279.14 " fill="none" id="ItemWbSearchEntitiesRoute-&gt;SearchEntities" style="stroke: #A80036; stroke-width: 1.0;"/><polygon fill="#A80036" points="1066.74,280.48,1059.0168,274.3683,1061.8969,279.2371,1057.0282,282.1172,1066.74,280.48" style="stroke: #A80036; stroke-width: 1.0;"/><!--MD5=[4a3e7ae44c4cdbf242a332eeb0992723]
link PropertyWbSearchEntitiesRoute to SearchEntities--><path d="M1073.34,216.4 C1083.85,232.5 1098.99,255.68 1110.17,272.78 " fill="none" id="PropertyWbSearchEntitiesRoute-&gt;SearchEntities" style="stroke: #A80036; stroke-width: 1.0;"/><polygon fill="#A80036" points="1112.92,276.99,1111.3328,267.2699,1110.1795,272.8079,1104.6415,271.6546,1112.92,276.99" style="stroke: #A80036; stroke-width: 1.0;"/><!--MD5=[41c8d744c052f003c9a7c8430723782d]
link LexemeWbSearchEntitiesRoute to SearchEntities--><path d="M1336.6,216.05 C1291.74,232.89 1225.69,257.69 1179.34,275.1 " fill="none" id="LexemeWbSearchEntitiesRoute-&gt;SearchEntities" style="stroke: #A80036; stroke-width: 1.0;"/><polygon fill="#A80036" points="1174.64,276.86,1184.472,277.4353,1179.3199,275.0997,1181.6555,269.9475,1174.64,276.86" style="stroke: #A80036; stroke-width: 1.0;"/><!--MD5=[772ebd0ece42276cc169ae5ea79e441d]
link SearchEntities to WbSearchEntitiesControllerDispatcher--><path d="M1144.37,316.31 C1161.49,332.93 1186.5,357.21 1204.71,374.88 " fill="none" id="SearchEntities-&gt;WbSearchEntitiesControllerDispatcher" style="stroke: #A80036; stroke-width: 1.0;"/><polygon fill="#A80036" points="1208.71,378.78,1205.0261,369.6461,1205.1177,375.3022,1199.4616,375.3938,1208.71,378.78" style="stroke: #A80036; stroke-width: 1.0;"/><!--MD5=[e3807791d42eb1e2d1ba23ec52676146]
link QuerySearchEntities to WbSearchEntitiesControllerDispatcher--><path d="M1381.08,316.07 C1348.86,333.21 1301.08,358.63 1267.49,376.5 " fill="none" id="QuerySearchEntities-&gt;WbSearchEntitiesControllerDispatcher" style="stroke: #A80036; stroke-width: 1.0;"/><polygon fill="#A80036" points="1263.05,378.86,1272.8732,378.1492,1267.4606,376.5048,1269.1049,371.0922,1263.05,378.86" style="stroke: #A80036; stroke-width: 1.0;"/><!--MD5=[27fa1ec3f9866f2b5060bcceba2ddc4a]
link WbSearchEntitiesControllerDispatcher to ItemWbSearchEntitiesController--><path d="M1148.38,418.01 C1056.88,439.28 907.32,474.05 813.72,495.81 " fill="none" id="WbSearchEntitiesControllerDispatcher-&gt;ItemWbSearchEntitiesController" style="stroke: #A80036; stroke-width: 1.0;"/><polygon fill="#A80036" points="808.75,496.96,818.4257,498.7986,813.6178,495.818,816.5985,491.0101,808.75,496.96" style="stroke: #A80036; stroke-width: 1.0;"/><text fill="#000000" font-family="sans-serif" font-size="13" lengthAdjust="spacingAndGlyphs" textLength="27" x="1009" y="462.897">item</text><!--MD5=[dfb8d053446f594da5851462124c5982]
link WbSearchEntitiesControllerDispatcher to PropertyWbSearchEntitiesController--><path d="M1193.46,418.14 C1154.9,438.94 1092.64,472.53 1052.27,494.31 " fill="none" id="WbSearchEntitiesControllerDispatcher-&gt;PropertyWbSearchEntitiesController" style="stroke: #A80036; stroke-width: 1.0;"/><polygon fill="#A80036" points="1047.46,496.91,1057.2804,496.1612,1051.8614,494.5378,1053.4848,489.1189,1047.46,496.91" style="stroke: #A80036; stroke-width: 1.0;"/><text fill="#000000" font-family="sans-serif" font-size="13" lengthAdjust="spacingAndGlyphs" textLength="53" x="1134" y="462.897">property</text><!--MD5=[5e94bdfe2b93abde5abf0230b535dce3]
link WbSearchEntitiesControllerDispatcher to EntitySchemaWbSearchEntitiesController--><path d="M1243.91,418.14 C1261.3,438.52 1289.17,471.17 1307.77,492.97 " fill="none" id="WbSearchEntitiesControllerDispatcher-&gt;EntitySchemaWbSearchEntitiesController" style="stroke: #A80036; stroke-width: 1.0;"/><polygon fill="#A80036" points="1311.13,496.91,1308.3304,487.4674,1307.8843,493.1067,1302.2451,492.6606,1311.13,496.91" style="stroke: #A80036; stroke-width: 1.0;"/><text fill="#000000" font-family="sans-serif" font-size="13" lengthAdjust="spacingAndGlyphs" textLength="81" x="1284" y="462.897">entityschema</text><!--MD5=[6093080f6a7eacdfc5b9a8f75f4df756]
link WbSearchEntitiesControllerDispatcher to FallbackController--><path d="M1301.24,418.01 C1385.24,439.24 1522.43,473.91 1608.56,495.68 " fill="none" id="WbSearchEntitiesControllerDispatcher-&gt;FallbackController" style="stroke: #A80036; stroke-width: 1.0;"/><polygon fill="#A80036" points="1613.64,496.96,1605.8999,490.8697,1608.7935,495.7305,1603.9327,498.6241,1613.64,496.96" style="stroke: #A80036; stroke-width: 1.0;"/><text fill="#000000" font-family="sans-serif" font-size="13" lengthAdjust="spacingAndGlyphs" textLength="43" x="1485" y="462.897">lexeme</text><!--MD5=[6fecb2b3403d15c1cdd98f1d9ea89f5e]
link ItemWbSearchEntitiesController to ItemPrefixSearch--><path d="M642.06,536.02 C599.26,546.2 547.26,560.2 502,577 C469.36,589.12 434,606.65 408.1,620.38 " fill="none" id="ItemWbSearchEntitiesController-&gt;ItemPrefixSearch" style="stroke: #A80036; stroke-width: 1.0;"/><polygon fill="#A80036" points="403.37,622.9,413.1932,622.1892,407.7806,620.5448,409.4249,615.1322,403.37,622.9" style="stroke: #A80036; stroke-width: 1.0;"/><!--MD5=[751af8e454d2f11f754a2ccd6076185a]
link PropertyWbSearchEntitiesController to PropertyPrefixSearch--><path d="M951.17,536.06 C874.87,558.97 745.63,597.78 667.02,621.38 " fill="none" id="PropertyWbSearchEntitiesController-&gt;PropertyPrefixSearch" style="stroke: #A80036; stroke-width: 1.0;"/><polygon fill="#A80036" points="661.91,622.91,671.6815,624.1418,666.6972,621.4667,669.3723,616.4823,661.91,622.91" style="stroke: #A80036; stroke-width: 1.0;"/><!--MD5=[2c35a738592a445498d2f455a5ee89e5]
link EntitySchemaWbSearchEntitiesController to EntitySchemaSearchHelper--><path d="M1343.02,536.06 C1362.09,558.16 1393.92,595.05 1414.43,618.82 " fill="none" id="EntitySchemaWbSearchEntitiesController-&gt;EntitySchemaSearchHelper" style="stroke: #A80036; stroke-width: 1.0;"/><polygon fill="#A80036" points="1417.87,622.81,1415.0119,613.385,1414.6008,619.0268,1408.9589,618.6157,1417.87,622.81" style="stroke: #A80036; stroke-width: 1.0;"/><!--MD5=[5ecb99039316d9f86fe86bdc7d4a3bda]
link FallbackController to LexemeSearchHelper--><path d="M1681.61,536.06 C1675.27,557.89 1664.75,594.14 1657.84,617.93 " fill="none" id="FallbackController-&gt;LexemeSearchHelper" style="stroke: #A80036; stroke-width: 1.0;"/><polygon fill="#A80036" points="1656.43,622.81,1662.79,615.29,1657.83,618.01,1655.11,613.05,1656.43,622.81" style="stroke: #A80036; stroke-width: 1.0;"/><!--MD5=[def64f2efab666379d619fa3df323c90]
link LexemeSearchHelper to EntitySearchHelper--><path d="M1630.24,662.16 C1612.06,678.51 1585.61,702.29 1566.42,719.55 " fill="none" id="LexemeSearchHelper-&gt;EntitySearchHelper" style="stroke: #A80036; stroke-width: 1.0; stroke-dasharray: 7.0,7.0;"/><polygon fill="#A80036" points="1562.68,722.91,1572.0455,719.8625,1566.3965,719.5652,1566.6938,713.9161,1562.68,722.91" style="stroke: #A80036; stroke-width: 1.0;"/><!--MD5=[8faa3692e7561b13bb421714c1b60614]
link EntitySchemaSearchHelper to EntitySearchHelper--><path d="M1454.57,662.16 C1472.58,678.51 1498.79,702.29 1517.8,719.55 " fill="none" id="EntitySchemaSearchHelper-&gt;EntitySearchHelper" style="stroke: #A80036; stroke-width: 1.0; stroke-dasharray: 7.0,7.0;"/><polygon fill="#A80036" points="1521.51,722.91,1517.5326,713.9,1517.8071,719.5502,1512.1569,719.8247,1521.51,722.91" style="stroke: #A80036; stroke-width: 1.0;"/><!--MD5=[e86630083cb89585140be2c84767cb1f]
@startuml

skinparam componentStyle rectangle

actor Client

package "REST API" {

    [ /suggest/items ] as SuggestItemsRoute
    [ /suggest/properties ] as SuggestPropertiesRoute

    [ItemPrefixSearchRouteHandler]
    [PropertyPrefixSearchRouteHandler]
}

package "Action API" {

    [ ?action=wbsearchentities&type=item ] as ItemWbSearchEntitiesRoute
    [ ?action=wbsearchentities&type=property ] as PropertyWbSearchEntitiesRoute
    [ ?action=wbsearchentities&type=lexeme ] as LexemeWbSearchEntitiesRoute
    [ ?action=query&list=wbsearch ] as QuerySearchEntitiesRoute

    [SearchEntities]
    [QuerySearchEntities]

    [WbSearchEntitiesControllerDispatcher]

    [ItemWbSearchEntitiesController]
    [PropertyWbSearchEntitiesController]
    [EntitySchemaWbSearchEntitiesController]
    [FallbackEntitySearchHelperController (Lexeme, ...)] as FallbackController
}

package "Use Cases" {

    [ItemPrefixSearch]
    [PropertyPrefixSearch]

	[ItemPrefixSearchEngine]
	[PropertyPrefixSearchEngine]
}

package "CirrusSearch" {
    [EntitySearchElastic]
}

package "Legacy Search" {

    [EntitySearchHelper]
    [LexemeSearchHelper]
    [EntitySchemaSearchHelper]
}

Client - -> SuggestItemsRoute
Client - -> SuggestPropertiesRoute
Client - -> QuerySearchEntitiesRoute

SuggestItemsRoute - -> [ItemPrefixSearchRouteHandler]
SuggestPropertiesRoute - -> [PropertyPrefixSearchRouteHandler]

QuerySearchEntitiesRoute - -> [QuerySearchEntities]

[ItemPrefixSearchRouteHandler] - -> [ItemPrefixSearch]
[ItemPrefixSearch] - -> [ItemPrefixSearchEngine]
[ItemPrefixSearchEngine] - -> [EntitySearchElastic]

[PropertyPrefixSearchRouteHandler] - -> [PropertyPrefixSearch]
[PropertyPrefixSearch] - -> [PropertyPrefixSearchEngine]
[PropertyPrefixSearchEngine] - -> [EntitySearchElastic]

Client - -> ItemWbSearchEntitiesRoute
Client - -> PropertyWbSearchEntitiesRoute
Client - -> LexemeWbSearchEntitiesRoute

ItemWbSearchEntitiesRoute - -> [SearchEntities]
PropertyWbSearchEntitiesRoute - -> [SearchEntities]
LexemeWbSearchEntitiesRoute - -> [SearchEntities]

[SearchEntities] - -> [WbSearchEntitiesControllerDispatcher]
[QuerySearchEntities] - -> [WbSearchEntitiesControllerDispatcher]

[WbSearchEntitiesControllerDispatcher] - -> [ItemWbSearchEntitiesController] : item
[WbSearchEntitiesControllerDispatcher] - -> [PropertyWbSearchEntitiesController] : property
[WbSearchEntitiesControllerDispatcher] - -> [EntitySchemaWbSearchEntitiesController] : entityschema
[WbSearchEntitiesControllerDispatcher] - -> [FallbackController] : lexeme

[ItemWbSearchEntitiesController] - -> [ItemPrefixSearch]
[PropertyWbSearchEntitiesController] - -> [PropertyPrefixSearch]

[EntitySchemaWbSearchEntitiesController] - -> [EntitySchemaSearchHelper]
[FallbackController] - -> [LexemeSearchHelper]
    [LexemeSearchHelper] ..> [EntitySearchHelper]
    [EntitySchemaSearchHelper] ..> [EntitySearchHelper]


@enduml

PlantUML version 1.2020.02(Sun Mar 01 11:22:07 CET 2020)
(GPL source distribution)
Java Runtime: OpenJDK Runtime Environment
JVM: OpenJDK 64-Bit Server VM
Java Version: 21.0.10+7-Ubuntu-124.04
Operating System: Linux
Default Encoding: UTF-8
Language: de
Country: DE
--></g></svg>